<svg width="16" height="16" viewBox="0 0 16 16" fill="none" xmlns="http://www.w3.org/2000/svg">
<path d="M7.99976 5.99991V8.66658M7.99976 11.3332H8.00642M7.07663 2.59439L1.59338 12.0655C1.28924 12.5908 1.13717 12.8535 1.15965 13.069C1.17925 13.2571 1.27776 13.4279 1.43067 13.5391C1.60597 13.6666 1.90948 13.6666 2.5165 13.6666H13.483C14.09 13.6666 14.3935 13.6666 14.5688 13.5391C14.7217 13.4279 14.8203 13.2571 14.8399 13.069C14.8623 12.8535 14.7103 12.5908 14.4061 12.0655L8.92288 2.59439C8.61983 2.07095 8.46831 1.80923 8.27062 1.72132C8.09818 1.64465 7.90133 1.64465 7.72889 1.72132C7.5312 1.80923 7.37968 2.07095 7.07663 2.59439Z" stroke="#6606A5" stroke-width="1.33333" stroke-linecap="round" stroke-linejoin="round"/>
</svg>
