<svg width="56" height="56" viewBox="0 0 56 56" fill="none" xmlns="http://www.w3.org/2000/svg">
<rect x="4" y="4" width="48" height="48" rx="24" fill="#F04438" fill-opacity="0.15"/>
<rect x="2" y="2" width="52" height="52" rx="26" stroke="#F04438" stroke-opacity="0.05" stroke-width="4"/>
<path d="M28.8327 23.8333L27.9031 21.9741C27.6355 21.439 27.5017 21.1714 27.3022 20.976C27.1257 20.8031 26.913 20.6716 26.6794 20.5911C26.4153 20.5 26.1162 20.5 25.5179 20.5H22.3327C21.3993 20.5 20.9326 20.5 20.576 20.6817C20.2624 20.8414 20.0075 21.0964 19.8477 21.41C19.666 21.7665 19.666 22.2332 19.666 23.1667V23.8333M19.666 23.8333H32.3327C33.7328 23.8333 34.4329 23.8333 34.9677 24.1058C35.4381 24.3455 35.8205 24.728 36.0602 25.1984C36.3327 25.7331 36.3327 26.4332 36.3327 27.8333V31.5C36.3327 32.9001 36.3327 33.6002 36.0602 34.135C35.8205 34.6054 35.4381 34.9878 34.9677 35.2275C34.4329 35.5 33.7328 35.5 32.3327 35.5H23.666C22.2659 35.5 21.5658 35.5 21.031 35.2275C20.5606 34.9878 20.1782 34.6054 19.9385 34.135C19.666 33.6002 19.666 32.9001 19.666 31.5V23.8333ZM25.4993 29.6667L27.9993 32.1667M27.9993 32.1667L30.4993 29.6667M27.9993 32.1667V27.1667" stroke="#F04438" stroke-width="1.66667" stroke-linecap="round" stroke-linejoin="round"/>
</svg>
