<svg width="19" height="19" viewBox="0 0 19 19" fill="none" xmlns="http://www.w3.org/2000/svg">
<g clip-path="url(#clip0_15_23704)">
<path d="M8.86272 1.53979L11.1724 3.84951M11.1724 3.84951L8.86272 6.15922M11.1724 3.84951H5.62913C4.33557 3.84951 3.68879 3.8495 3.19472 4.10125C2.76012 4.32269 2.40678 4.67603 2.18534 5.11063C1.93359 5.6047 1.93359 6.25148 1.93359 7.54504V11.9335C1.93359 12.291 1.93359 12.4698 1.95335 12.6199C2.0898 13.6564 2.90538 14.4719 3.94183 14.6084C4.09192 14.6282 4.2707 14.6282 4.62826 14.6282M8.09282 14.6282H13.6361C14.9297 14.6282 15.5765 14.6282 16.0705 14.3764C16.5051 14.155 16.8585 13.8016 17.0799 13.367C17.3317 12.873 17.3317 12.2262 17.3317 10.9326V6.54417C17.3317 6.18661 17.3317 6.00783 17.3119 5.85774C17.1755 4.82129 16.3599 4.00572 15.3234 3.86926C15.1733 3.8495 14.9946 3.84951 14.637 3.84951M8.09282 14.6282L10.4025 16.9379M8.09282 14.6282L10.4025 12.3184" stroke="#00945E" stroke-width="1.53981" stroke-linecap="round" stroke-linejoin="round"/>
</g>
<defs>
<clipPath id="clip0_15_23704">
<rect width="18.4777" height="18.4777" fill="white" transform="translate(0.394531)"/>
</clipPath>
</defs>
</svg>
