<svg width="42" height="42" viewBox="0 0 42 42" fill="none" xmlns="http://www.w3.org/2000/svg">
<path d="M4.37754 22.75H14.8775M27.1275 22.75H37.6275M21.0025 12.25V36.75M21.0025 12.25C23.4188 12.25 25.3775 10.2912 25.3775 7.875M21.0025 12.25C18.5863 12.25 16.6275 10.2912 16.6275 7.875M7.00254 36.75L35.0025 36.75M7.00254 7.87501L16.6275 7.875M16.6275 7.875C16.6275 5.45875 18.5863 3.5 21.0025 3.5C23.4188 3.5 25.3775 5.45875 25.3775 7.875M25.3775 7.875L35.0025 7.875M15.5433 25.0886C14.8421 27.7735 12.4592 29.75 9.62754 29.75C6.79586 29.75 4.41299 27.7735 3.71177 25.0886C3.65448 24.8692 3.62583 24.7596 3.62307 24.3213C3.62137 24.0526 3.72122 23.4331 3.80724 23.1786C3.94757 22.7634 4.09948 22.529 4.40328 22.0603L9.62754 14L14.8518 22.0603C15.1556 22.529 15.3075 22.7634 15.4478 23.1786C15.5339 23.4331 15.6337 24.0526 15.632 24.3213C15.6292 24.7596 15.6006 24.8692 15.5433 25.0886ZM38.2933 25.0886C37.5921 27.7735 35.2092 29.75 32.3775 29.75C29.5459 29.75 27.163 27.7735 26.4618 25.0886C26.4045 24.8692 26.3758 24.7596 26.3731 24.3213C26.3714 24.0526 26.4712 23.4331 26.5572 23.1786C26.6976 22.7634 26.8495 22.529 27.1533 22.0603L32.3775 14L37.6018 22.0603C37.9056 22.529 38.0575 22.7634 38.1978 23.1786C38.2839 23.4331 38.3837 24.0526 38.382 24.3213C38.3792 24.7596 38.3506 24.8692 38.2933 25.0886Z" stroke="#F04438" stroke-width="3.5" stroke-linecap="round" stroke-linejoin="round"/>
</svg>
