<svg width="42" height="42" viewBox="0 0 42 42" fill="none" xmlns="http://www.w3.org/2000/svg">
<path d="M4.37559 22.75H14.8756M27.1256 22.75H37.6256M21.0006 12.25V36.75M21.0006 12.25C23.4168 12.25 25.3756 10.2912 25.3756 7.875M21.0006 12.25C18.5843 12.25 16.6256 10.2912 16.6256 7.875M7.00059 36.75L35.0006 36.75M7.00059 7.87501L16.6256 7.875M16.6256 7.875C16.6256 5.45875 18.5843 3.5 21.0006 3.5C23.4168 3.5 25.3756 5.45875 25.3756 7.875M25.3756 7.875L35.0006 7.875M15.5414 25.0886C14.8401 27.7735 12.4573 29.75 9.62559 29.75C6.79391 29.75 4.41103 27.7735 3.70982 25.0886C3.65253 24.8692 3.62388 24.7596 3.62111 24.3213C3.61942 24.0526 3.71927 23.4331 3.80529 23.1786C3.94562 22.7634 4.09752 22.529 4.40133 22.0603L9.62559 14L14.8498 22.0603C15.1536 22.529 15.3056 22.7634 15.4459 23.1786C15.5319 23.4331 15.6318 24.0526 15.6301 24.3213C15.6273 24.7596 15.5986 24.8692 15.5414 25.0886ZM38.2914 25.0886C37.5901 27.7735 35.2073 29.75 32.3756 29.75C29.5439 29.75 27.161 27.7735 26.4598 25.0886C26.4025 24.8692 26.3739 24.7596 26.3711 24.3213C26.3694 24.0526 26.4693 23.4331 26.5553 23.1786C26.6956 22.7634 26.8475 22.529 27.1513 22.0603L32.3756 14L37.5998 22.0603C37.9036 22.529 38.0556 22.7634 38.1959 23.1786C38.2819 23.4331 38.3817 24.0526 38.3801 24.3213C38.3773 24.7596 38.3486 24.8692 38.2914 25.0886Z" stroke="#667085" stroke-opacity="0.5" stroke-width="3.5" stroke-linecap="round" stroke-linejoin="round"/>
</svg>
