<svg width="18" height="18" viewBox="0 0 18 18" fill="none" xmlns="http://www.w3.org/2000/svg">
<path d="M1.87804 9.75H6.37804M11.628 9.75H16.128M9.00304 5.25V15.75M9.00304 5.25C10.0386 5.25 10.878 4.41053 10.878 3.375M9.00304 5.25C7.96751 5.25 7.12804 4.41053 7.12804 3.375M3.00304 15.75L15.003 15.75M3.00304 3.37501L7.12804 3.375M7.12804 3.375C7.12804 2.33947 7.96751 1.5 9.00304 1.5C10.0386 1.5 10.878 2.33947 10.878 3.375M10.878 3.375L15.003 3.375M6.66337 10.7523C6.36285 11.9029 5.34162 12.75 4.12804 12.75C2.91446 12.75 1.89323 11.9029 1.59271 10.7523C1.56816 10.6582 1.55588 10.6112 1.5547 10.4234C1.55397 10.3083 1.59676 10.0428 1.63363 9.93369C1.69377 9.75573 1.75887 9.65529 1.88907 9.45441L4.12804 6L6.36701 9.45441C6.49721 9.65529 6.56231 9.75573 6.62246 9.93369C6.65932 10.0428 6.70211 10.3083 6.70139 10.4234C6.7002 10.6112 6.68792 10.6582 6.66337 10.7523ZM16.4134 10.7523C16.1129 11.9029 15.0916 12.75 13.878 12.75C12.6645 12.75 11.6432 11.9029 11.3427 10.7523C11.3182 10.6582 11.3059 10.6112 11.3047 10.4234C11.304 10.3083 11.3468 10.0428 11.3836 9.93369C11.4438 9.75573 11.5089 9.65529 11.6391 9.45441L13.878 6L16.117 9.45441C16.2472 9.65529 16.3123 9.75573 16.3725 9.93369C16.4093 10.0428 16.4521 10.3083 16.4514 10.4234C16.4502 10.6112 16.4379 10.6582 16.4134 10.7523Z" stroke="#344054" stroke-width="1.5" stroke-linecap="round" stroke-linejoin="round"/>
</svg>
