<svg width="42" height="42" viewBox="0 0 42 42" fill="none" xmlns="http://www.w3.org/2000/svg">
<rect width="41.4343" height="41.4343" rx="8.63214" fill="white" fill-opacity="0.1"/>
<path d="M28.039 25.7502L27.2751 26.586C26.8699 27.0291 26.3204 27.278 25.7475 27.278C25.1746 27.278 24.6251 27.0291 24.2199 26.586C23.8142 26.1437 23.2647 25.8954 22.692 25.8954C22.1192 25.8954 21.5698 26.1437 21.164 26.586M14.2891 27.278H15.5682C15.9419 27.278 16.1287 27.278 16.3046 27.2358C16.4605 27.1984 16.6095 27.1366 16.7462 27.0529C16.9004 26.9584 17.0325 26.8263 17.2967 26.562L26.8932 16.9655C27.5261 16.3327 27.5261 15.3067 26.8932 14.6738C26.2604 14.041 25.2344 14.041 24.6016 14.6738L15.005 24.2704C14.7408 24.5346 14.6087 24.6667 14.5142 24.8209C14.4304 24.9576 14.3687 25.1066 14.3313 25.2625C14.2891 25.4383 14.2891 25.6252 14.2891 25.9989V27.278Z" stroke="white" stroke-width="1.52778" stroke-linecap="round" stroke-linejoin="round"/>
</svg>
