<svg width="18" height="18" viewBox="0 0 18 18" fill="none" xmlns="http://www.w3.org/2000/svg">
<path d="M12.75 8.25V6C12.75 3.92893 11.0711 2.25 9 2.25C6.92893 2.25 5.25 3.92893 5.25 6V8.25M6.6 15.75H11.4C12.6601 15.75 13.2902 15.75 13.7715 15.5048C14.1948 15.289 14.539 14.9448 14.7548 14.5215C15 14.0402 15 13.4101 15 12.15V11.85C15 10.5899 15 9.95982 14.7548 9.47852C14.539 9.05516 14.1948 8.71095 13.7715 8.49524C13.2902 8.25 12.6601 8.25 11.4 8.25H6.6C5.33988 8.25 4.70982 8.25 4.22852 8.49524C3.80516 8.71095 3.46095 9.05516 3.24524 9.47852C3 9.95982 3 10.5899 3 11.85V12.15C3 13.4101 3 14.0402 3.24524 14.5215C3.46095 14.9448 3.80516 15.289 4.22852 15.5048C4.70982 15.75 5.33988 15.75 6.6 15.75Z" stroke="#344054" stroke-width="1.5" stroke-linecap="round" stroke-linejoin="round"/>
</svg>
