<svg width="280" height="281" viewBox="0 0 280 281" fill="none" xmlns="http://www.w3.org/2000/svg">
<path d="M134.949 280.764C200.748 280.764 254.089 260.739 254.089 236.036C254.089 211.333 200.748 191.307 134.949 191.307C69.1494 191.307 15.8086 211.333 15.8086 236.036C15.8086 260.739 69.1494 280.764 134.949 280.764Z" fill="#007DFE"/>
<path d="M134.953 272.31C208.38 272.31 267.905 251.193 267.905 225.145C267.905 199.096 208.38 177.979 134.953 177.979C61.5249 177.979 2 199.096 2 225.145C2 251.193 61.5249 272.31 134.953 272.31Z" fill="#DCF0FF"/>
<path d="M134.954 258.215C186.44 258.215 228.177 243.409 228.177 225.144C228.177 206.88 186.44 192.074 134.954 192.074C83.468 192.074 41.7305 206.88 41.7305 225.144C41.7305 243.409 83.468 258.215 134.954 258.215Z" stroke="#94BEFE" stroke-width="4.09341" stroke-miterlimit="10"/>
<path opacity="0.5" d="M158.182 260.229C209.128 260.229 250.427 246.902 250.427 230.463C250.427 214.024 209.128 200.697 158.182 200.697C107.237 200.697 65.9375 214.024 65.9375 230.463C65.9375 246.902 107.237 260.229 158.182 260.229Z" fill="#94BEFE"/>
<path d="M2 225.145C2 199.097 61.525 177.98 134.953 177.98" stroke="#0169FA" stroke-width="2.0467" stroke-miterlimit="10" stroke-linecap="round" stroke-linejoin="round"/>
<path d="M184.239 217.703L183.219 201.508C209.807 198.674 251.615 185.871 261.653 167.994C263.241 165.167 263.707 162.552 263.164 159.523C262.2 154.139 259.868 150.04 256.038 146.993C242.097 135.907 217.172 143.5 207.16 146.726L204.147 130.955C205.824 130.414 245.47 117.907 266.685 134.781C273.424 140.141 277.723 147.779 279.463 157.482C280.827 165.092 279.586 172.606 275.873 179.215C259.181 208.936 191.86 216.894 184.239 217.703Z" fill="#007DFE"/>
<path d="M245.603 123.617C245.603 123.617 236.259 242.4 134.962 242.4C131.939 242.4 128.999 242.286 126.139 242.091C33.0959 235.412 24.3047 123.619 24.3047 123.619H245.603V123.617Z" fill="#94BEFE"/>
<path opacity="0.5" d="M245.604 123.617C245.604 123.617 236.26 242.4 134.963 242.4C131.941 242.4 129.001 242.286 126.141 242.091C204.325 211.061 181.696 149.681 187.741 123.619H245.604V123.617Z" fill="#007DFE"/>
<path d="M134.959 171.719C196.067 171.719 245.605 150.186 245.605 123.624C245.605 97.0621 196.067 75.5293 134.959 75.5293C73.8505 75.5293 24.3125 97.0621 24.3125 123.624C24.3125 150.186 73.8505 171.719 134.959 171.719Z" fill="#DCF0FF"/>
<path d="M134.951 165.849C188.601 165.849 232.093 146.944 232.093 123.624C232.093 100.304 188.601 81.3994 134.951 81.3994C81.3006 81.3994 37.8086 100.304 37.8086 123.624C37.8086 146.944 81.3006 165.849 134.951 165.849Z" fill="#007DFE"/>
<path d="M228.243 135.454C216.488 153.022 179.176 165.848 134.965 165.848C90.7532 165.848 53.4268 153.022 41.6719 135.454C53.4268 117.87 90.7545 105.044 134.965 105.044C179.176 105.044 216.488 117.87 228.243 135.454Z" fill="#B05F06"/>
<path d="M212.299 121.702C201.08 120.37 188.984 119.64 176.352 119.64C118.404 119.64 71.4337 135 71.4337 153.963C71.4337 154.516 71.4664 155.067 71.5469 155.62C57.5188 150.36 46.981 143.394 41.6719 135.454C53.4268 117.87 90.7545 105.044 134.965 105.044C166.529 105.044 194.569 111.571 212.299 121.702Z" fill="#BE6401"/>
<path d="M126.139 242.092C33.096 235.413 24.3047 123.619 24.3047 123.619" stroke="#0169FA" stroke-width="2.0467" stroke-miterlimit="10" stroke-linecap="round" stroke-linejoin="round"/>
<path d="M134.953 75.5293C196.061 75.5293 245.599 97.062 245.599 123.624" stroke="#0169FA" stroke-width="2.0467" stroke-miterlimit="10" stroke-linecap="round" stroke-linejoin="round"/>
<g filter="url(#filter0_f_4579_8649)">
<path d="M155.889 86.3333C155.889 75.1111 163.902 63.8889 179.938 63.8889C188.441 63.8889 196.597 60.511 202.609 54.4982C208.622 48.4854 212 40.3303 212 31.827V24.6111M111 86.3333V80.7222C111 71.7933 114.547 63.23 120.861 56.9163C127.174 50.6026 135.738 47.0556 144.667 47.0556C150.619 47.0556 156.328 44.6909 160.537 40.4817C164.746 36.2726 167.111 30.5637 167.111 24.6111V19" stroke="#DFDFDF" stroke-opacity="0.5" stroke-width="16.8333" stroke-linecap="round" stroke-linejoin="round"/>
</g>
<defs>
<filter id="filter0_f_4579_8649" x="92.482" y="0.483496" width="138.036" height="104.367" filterUnits="userSpaceOnUse" color-interpolation-filters="sRGB">
<feFlood flood-opacity="0" result="BackgroundImageFix"/>
<feBlend mode="normal" in="SourceGraphic" in2="BackgroundImageFix" result="shape"/>
<feGaussianBlur stdDeviation="5.05" result="effect1_foregroundBlur_4579_8649"/>
</filter>
</defs>
</svg>
