<svg width="38" height="38" viewBox="0 0 38 38" fill="none" xmlns="http://www.w3.org/2000/svg">
<path d="M21.3084 13.1541C20.4068 13.7968 19.3035 14.1749 18.1119 14.1749C15.0674 14.1749 12.5994 11.7069 12.5994 8.6624C12.5994 5.61793 15.0674 3.1499 18.1119 3.1499C20.0854 3.1499 21.8166 4.18691 22.7905 5.74573M9.44941 31.6372H13.5606C14.0967 31.6372 14.6294 31.701 15.149 31.8285L19.493 32.8841C20.4356 33.1138 21.4175 33.1361 22.3699 32.9511L27.1728 32.0167C28.4416 31.7695 29.6088 31.162 30.5234 30.2722L33.9216 26.9666C34.892 26.0242 34.892 24.495 33.9216 23.551C33.0479 22.7011 31.6644 22.6054 30.6759 23.3261L26.7155 26.2155C26.1483 26.6301 25.4582 26.8534 24.7484 26.8534H20.9241L23.3583 26.8533C24.7304 26.8533 25.8418 25.7721 25.8418 24.4375V23.9543C25.8418 22.8461 25.0664 21.8797 23.9616 21.6118L20.2044 20.6981C19.593 20.5498 18.9668 20.4749 18.3374 20.4749C16.8178 20.4749 14.0671 21.733 14.0671 21.733L9.44941 23.6641M31.4994 10.2374C31.4994 13.2819 29.0314 15.7499 25.9869 15.7499C22.9424 15.7499 20.4744 13.2819 20.4744 10.2374C20.4744 7.19293 22.9424 4.7249 25.9869 4.7249C29.0314 4.7249 31.4994 7.19293 31.4994 10.2374ZM3.14941 22.9949L3.14941 32.1299C3.14941 33.012 3.14941 33.453 3.32108 33.7899C3.47208 34.0863 3.71302 34.3272 4.00938 34.4782C4.34629 34.6499 4.78733 34.6499 5.66941 34.6499H6.92941C7.8115 34.6499 8.25254 34.6499 8.58945 34.4782C8.8858 34.3272 9.12675 34.0863 9.27775 33.7899C9.44941 33.453 9.44941 33.012 9.44941 32.1299V22.9949C9.44941 22.1128 9.44941 21.6718 9.27775 21.3349C9.12675 21.0385 8.8858 20.7976 8.58945 20.6466C8.25254 20.4749 7.8115 20.4749 6.92941 20.4749L5.66941 20.4749C4.78733 20.4749 4.34629 20.4749 4.00938 20.6466C3.71302 20.7976 3.47208 21.0385 3.32108 21.3349C3.14941 21.6718 3.14941 22.1128 3.14941 22.9949Z" stroke="#344054" stroke-width="3.08333" stroke-linecap="round" stroke-linejoin="round"/>
</svg>
