<svg width="63" height="38" viewBox="0 0 63 38" fill="none" xmlns="http://www.w3.org/2000/svg">
<path d="M9.45039 17.325V23.625M28.3504 14.175V20.475M26.7754 6.30005C30.6321 6.30005 32.7181 6.8903 33.756 7.34812C33.8942 7.40909 33.9633 7.43958 34.1628 7.62993C34.2823 7.74404 34.5006 8.07884 34.5567 8.23429C34.6504 8.49361 34.6504 8.63536 34.6504 8.91887V25.8476C34.6504 27.2789 34.6504 27.9946 34.4358 28.3624C34.2174 28.7366 34.0069 28.9106 33.5982 29.0544C33.1965 29.1957 32.3855 29.0399 30.7636 28.7283C29.6283 28.5102 28.2819 28.35 26.7754 28.35C22.0504 28.35 17.3254 31.5 11.0254 31.5C7.16868 31.5 5.08271 30.9098 4.04481 30.452C3.90658 30.391 3.83747 30.3605 3.63801 30.1702C3.51845 30.0561 3.3002 29.7213 3.24406 29.5658C3.15039 29.3065 3.15039 29.1647 3.15039 28.8812L3.15039 11.9525C3.15039 10.5212 3.15039 9.80553 3.36503 9.43767C3.58336 9.06349 3.79392 8.88953 4.20258 8.74573C4.60433 8.60435 5.41529 8.76017 7.03722 9.07181C8.17246 9.28993 9.51887 9.45005 11.0254 9.45005C15.7504 9.45005 20.4754 6.30005 26.7754 6.30005ZM22.8379 18.9C22.8379 21.0747 21.075 22.8375 18.9004 22.8375C16.7258 22.8375 14.9629 21.0747 14.9629 18.9C14.9629 16.7254 16.7258 14.9625 18.9004 14.9625C21.075 14.9625 22.8379 16.7254 22.8379 18.9Z" stroke="#F04438" stroke-width="3.15" stroke-linecap="round" stroke-linejoin="round"/>
<path d="M50.4006 27.3L50.4006 10.5M50.4006 10.5L44.1006 16.8M50.4006 10.5L56.7006 16.8" stroke="#F04438" stroke-width="2.1" stroke-linecap="round" stroke-linejoin="round"/>
</svg>
