<svg width="18" height="18" viewBox="0 0 18 18" fill="none" xmlns="http://www.w3.org/2000/svg">
<path d="M3 15.75L3 3M3 9.75H8.55C8.97004 9.75 9.18006 9.75 9.34049 9.66825C9.48161 9.59635 9.59635 9.48161 9.66825 9.34049C9.75 9.18006 9.75 8.97004 9.75 8.55V3.45C9.75 3.02996 9.75 2.81994 9.66825 2.65951C9.59635 2.51839 9.48161 2.40365 9.34049 2.33175C9.18006 2.25 8.97004 2.25 8.55 2.25H4.2C3.77996 2.25 3.56994 2.25 3.40951 2.33175C3.26839 2.40365 3.15365 2.51839 3.08175 2.65951C3 2.81994 3 3.02996 3 3.45V9.75ZM9.75 3.75H14.55C14.97 3.75 15.1801 3.75 15.3405 3.83175C15.4816 3.90365 15.5963 4.01839 15.6683 4.15951C15.75 4.31994 15.75 4.52996 15.75 4.95V10.05C15.75 10.47 15.75 10.6801 15.6683 10.8405C15.5963 10.9816 15.4816 11.0963 15.3405 11.1683C15.1801 11.25 14.97 11.25 14.55 11.25H10.95C10.53 11.25 10.3199 11.25 10.1595 11.1683C10.0184 11.0963 9.90365 10.9816 9.83175 10.8405C9.75 10.6801 9.75 10.47 9.75 10.05V3.75Z" stroke="#0169FA" stroke-width="1.5" stroke-linecap="round" stroke-linejoin="round"/>
</svg>
