<svg width="18" height="18" viewBox="0 0 18 18" fill="none" xmlns="http://www.w3.org/2000/svg">
<path d="M10.5 8.25H6M7.5 11.25H6M12 5.25H6M15 9V5.1C15 3.83988 15 3.20982 14.7548 2.72852C14.539 2.30516 14.1948 1.96095 13.7715 1.74524C13.2902 1.5 12.6601 1.5 11.4 1.5H6.6C5.33988 1.5 4.70982 1.5 4.22852 1.74524C3.80516 1.96095 3.46095 2.30516 3.24524 2.72852C3 3.20982 3 3.83988 3 5.1V12.9C3 14.1601 3 14.7902 3.24524 15.2715C3.46095 15.6948 3.80516 16.039 4.22852 16.2548C4.70982 16.5 5.33988 16.5 6.6 16.5H9" stroke="#0169FA" stroke-width="1.5" stroke-linecap="round" stroke-linejoin="round"/>
<path d="M12.7348 16.3698H14.4797M12.0368 11.5713H15.1777C15.3405 11.5713 15.422 11.5713 15.4842 11.603C15.5389 11.6309 15.5834 11.6754 15.6113 11.7301C15.643 11.7923 15.643 11.8737 15.643 12.0366V12.6399C15.643 12.7822 15.643 12.8533 15.6269 12.9202C15.6126 12.9796 15.5891 13.0363 15.5573 13.0884C15.5213 13.147 15.471 13.1973 15.3704 13.2979L14.5179 14.1504C14.4027 14.2656 14.3451 14.3232 14.3236 14.3896C14.3046 14.448 14.3046 14.5109 14.3236 14.5693C14.3451 14.6357 14.4027 14.6933 14.5179 14.8085L15.3704 15.661C15.471 15.7616 15.5213 15.8119 15.5573 15.8706C15.5891 15.9226 15.6126 15.9793 15.6269 16.0387C15.643 16.1056 15.643 16.1767 15.643 16.319V16.9223C15.643 17.0852 15.643 17.1666 15.6113 17.2288C15.5834 17.2835 15.5389 17.328 15.4842 17.3559C15.422 17.3876 15.3405 17.3876 15.1777 17.3876H12.0368C11.874 17.3876 11.7925 17.3876 11.7303 17.3559C11.6756 17.328 11.6311 17.2835 11.6032 17.2288C11.5715 17.1666 11.5715 17.0852 11.5715 16.9223V16.319C11.5715 16.1767 11.5715 16.1056 11.5876 16.0387C11.6019 15.9793 11.6254 15.9226 11.6572 15.8706C11.6932 15.8119 11.7435 15.7616 11.8441 15.661L12.6966 14.8085C12.8118 14.6933 12.8693 14.6357 12.8909 14.5693C12.9099 14.5109 12.9099 14.448 12.8909 14.3896C12.8693 14.3232 12.8118 14.2656 12.6966 14.1504L11.8441 13.2979C11.7435 13.1973 11.6932 13.147 11.6572 13.0884C11.6254 13.0363 11.6019 12.9796 11.5876 12.9202C11.5715 12.8533 11.5715 12.7822 11.5715 12.6399V12.0366C11.5715 11.8737 11.5715 11.7923 11.6032 11.7301C11.6311 11.6754 11.6756 11.6309 11.7303 11.603C11.7925 11.5713 11.874 11.5713 12.0368 11.5713Z" stroke="#0169FA" stroke-width="0.581633" stroke-linecap="round" stroke-linejoin="round"/>
</svg>
