<svg width="18" height="18" viewBox="0 0 18 18" fill="none" xmlns="http://www.w3.org/2000/svg">
<path d="M2.25 2.25V9.9C2.25 11.1601 2.25 11.7902 2.49524 12.2715C2.71095 12.6948 3.05516 13.039 3.47852 13.2548C3.95982 13.5 4.58988 13.5 5.85 13.5H11.25M11.25 13.5C11.25 14.7426 12.2574 15.75 13.5 15.75C14.7426 15.75 15.75 14.7426 15.75 13.5C15.75 12.2574 14.7426 11.25 13.5 11.25C12.2574 11.25 11.25 12.2574 11.25 13.5ZM2.25 6L11.25 6M11.25 6C11.25 7.24264 12.2574 8.25 13.5 8.25C14.7426 8.25 15.75 7.24264 15.75 6C15.75 4.75736 14.7426 3.75 13.5 3.75C12.2574 3.75 11.25 4.75736 11.25 6Z" stroke="#344054" stroke-width="1.5" stroke-linecap="round" stroke-linejoin="round"/>
</svg>
