<svg width="21" height="19" viewBox="0 0 21 19" fill="none" xmlns="http://www.w3.org/2000/svg">
<path d="M16.5 16.75V15.25C16.5 13.8521 15.5439 12.6775 14.25 12.3445M11.625 3.46807C12.7244 3.91311 13.5 4.99098 13.5 6.25C13.5 7.50902 12.7244 8.58689 11.625 9.03193M12.75 16.75C12.75 15.3522 12.75 14.6533 12.5216 14.1019C12.2172 13.3669 11.6331 12.7828 10.8981 12.4784C10.3467 12.25 9.64783 12.25 8.25 12.25H6C4.60218 12.25 3.90326 12.25 3.35195 12.4784C2.61687 12.7828 2.03284 13.3669 1.72836 14.1019C1.5 14.6533 1.5 15.3522 1.5 16.75M10.125 6.25C10.125 7.90685 8.78185 9.25 7.125 9.25C5.46815 9.25 4.125 7.90685 4.125 6.25C4.125 4.59315 5.46815 3.25 7.125 3.25C8.78185 3.25 10.125 4.59315 10.125 6.25Z" stroke="#0169FA" stroke-width="1.5" stroke-linecap="round" stroke-linejoin="round"/>
<path d="M16.8289 7.20328C17.1951 5.83577 16.9188 4.33199 16 3.17008M19.7803 8C20.421 5.61047 19.8846 2.97095 18.1708 1" stroke="#0169FA" stroke-width="1.52943" stroke-linecap="round" stroke-linejoin="round"/>
</svg>
