<svg width="18" height="18" viewBox="0 0 18 18" fill="none" xmlns="http://www.w3.org/2000/svg">
<g clip-path="url(#clip0_3697_7478)">
<path d="M4.6875 16.4695L9 9.00003M12.75 2.50484C9.51512 0.637179 5.46723 1.45325 3.1845 4.26223C2.9617 4.5364 2.85029 4.67349 2.81789 4.8699C2.7921 5.02617 2.8303 5.23327 2.91014 5.37006C3.01048 5.54198 3.18834 5.64467 3.54404 5.85003L14.456 12.15C14.8117 12.3554 14.9895 12.4581 15.1886 12.459C15.347 12.4598 15.5454 12.3893 15.6679 12.2888C15.8218 12.1626 15.8848 11.9975 16.0108 11.6675C17.3021 8.28611 15.9849 4.3725 12.75 2.50484ZM12.75 2.50484C11.3151 1.67641 8.47299 3.91284 6.40192 7.50003M12.75 2.50484C14.1849 3.33327 13.6691 6.91284 11.5981 10.5M16.5 16.5H1.5" stroke="#0169FA" stroke-width="1.5" stroke-linecap="round" stroke-linejoin="round"/>
</g>
<defs>
<clipPath id="clip0_3697_7478">
<rect width="18" height="18" fill="white"/>
</clipPath>
</defs>
</svg>
