<svg width="25" height="25" viewBox="0 0 25 25" fill="none" xmlns="http://www.w3.org/2000/svg">
<path d="M16.4922 4.21776C17.9739 4.95411 18.9922 6.48314 18.9922 8.25C18.9922 10.0169 17.9739 11.5459 16.4922 12.2822M18.4922 17.5164C20.0036 18.2003 21.3647 19.315 22.4922 20.75M2.49219 20.75C4.43868 18.2726 7.08137 16.75 9.99219 16.75C12.903 16.75 15.5457 18.2726 17.4922 20.75M14.4922 8.25C14.4922 10.7353 12.4775 12.75 9.99219 12.75C7.50691 12.75 5.49219 10.7353 5.49219 8.25C5.49219 5.76472 7.50691 3.75 9.99219 3.75C12.4775 3.75 14.4922 5.76472 14.4922 8.25Z" stroke="#0169FA" stroke-width="2.23139" stroke-linecap="round" stroke-linejoin="round"/>
</svg>
