<svg width="24" height="24" viewBox="0 0 24 24" fill="none" xmlns="http://www.w3.org/2000/svg">
<path d="M17 8.5H12M17 12H9M14.3163 18H7.8C6.11984 18 5.27976 18 4.63803 17.673C4.07354 17.3854 3.6146 16.9265 3.32698 16.362C3 15.7202 3 14.8802 3 13.2V7.8C3 6.11984 3 5.27976 3.32698 4.63803C3.6146 4.07354 4.07354 3.6146 4.63803 3.32698C5.27976 3 6.11984 3 7.8 3H16.2C17.8802 3 18.7202 3 19.362 3.32698C19.9265 3.6146 20.3854 4.07354 20.673 4.63803C21 5.27976 21 6.11984 21 7.8V20.3355C21 20.8684 21 21.1348 20.8908 21.2716C20.7958 21.3906 20.6517 21.4599 20.4995 21.4597C20.3244 21.4595 20.1163 21.2931 19.7002 20.9602L17.3148 19.0518C16.8275 18.662 16.5838 18.4671 16.3125 18.3285C16.0718 18.2055 15.8156 18.1156 15.5508 18.0613C15.2523 18 14.9403 18 14.3163 18Z" stroke="#344054" stroke-width="2" stroke-linecap="round" stroke-linejoin="round"/>
</svg>
