<svg width="26" height="24" viewBox="0 0 26 24" fill="none" xmlns="http://www.w3.org/2000/svg">
<path d="M3.99771 9H21.9978M9.99773 9L10.0244 21M8.78439 3H17.1844C18.8646 3 19.7047 3 20.3471 3.32698C20.9122 3.6146 21.3722 4.07354 21.6611 4.63803C21.9895 5.27976 21.9914 6.11984 21.9951 7.8L22.0138 16.2C22.0175 17.8802 22.0194 18.7202 21.6938 19.362C21.4074 19.9265 20.9495 20.3854 20.3857 20.673C19.7447 21 18.9046 21 17.2244 21H8.82441C7.14424 21 6.30416 21 5.6617 20.673C5.09657 20.3854 4.63661 19.9265 4.34773 19.362C4.01932 18.7202 4.01746 17.8802 4.01372 16.2L3.99505 7.8C3.99131 6.11984 3.98944 5.27976 4.315 4.63803C4.60136 4.07354 5.05929 3.6146 5.62313 3.32698C6.26414 3 7.10423 3 8.78439 3Z" stroke="#0169FA" stroke-width="1.83481" stroke-linecap="round" stroke-linejoin="round"/>
</svg>
