<svg width="20" height="21" viewBox="0 0 20 21" fill="none" xmlns="http://www.w3.org/2000/svg">
<path d="M13.3307 6.85742V4.52409C13.3307 3.59067 13.3307 3.12396 13.1491 2.76744C12.9893 2.45383 12.7343 2.19887 12.4207 2.03908C12.0642 1.85742 11.5975 1.85742 10.6641 1.85742H4.33073C3.39731 1.85742 2.9306 1.85742 2.57408 2.03908C2.26047 2.19887 2.00551 2.45383 1.84572 2.76744C1.66406 3.12396 1.66406 3.59067 1.66406 4.52409V10.8574C1.66406 11.7908 1.66406 12.2576 1.84572 12.6141C2.00551 12.9277 2.26047 13.1826 2.57408 13.3424C2.9306 13.5241 3.39731 13.5241 4.33073 13.5241H6.66406M9.33073 18.5241H15.6641C16.5975 18.5241 17.0642 18.5241 17.4207 18.3424C17.7343 18.1826 17.9893 17.9277 18.1491 17.6141C18.3307 17.2576 18.3307 16.7908 18.3307 15.8574V9.52409C18.3307 8.59067 18.3307 8.12396 18.1491 7.76744C17.9893 7.45383 17.7343 7.19887 17.4207 7.03908C17.0642 6.85742 16.5975 6.85742 15.6641 6.85742H9.33073C8.39731 6.85742 7.9306 6.85742 7.57408 7.03908C7.26047 7.19887 7.00551 7.45383 6.84572 7.76744C6.66406 8.12396 6.66406 8.59067 6.66406 9.52409V15.8574C6.66406 16.7908 6.66406 17.2576 6.84572 17.6141C7.00551 17.9277 7.26047 18.1826 7.57408 18.3424C7.9306 18.5241 8.39731 18.5241 9.33073 18.5241Z" stroke="#344054" stroke-width="1.66667" stroke-linecap="round" stroke-linejoin="round"/>
</svg>
