<svg width="20" height="20" viewBox="0 0 20 20" fill="none" xmlns="http://www.w3.org/2000/svg">
<path d="M2.3954 15.0964C2.43368 14.7518 2.45283 14.5795 2.50496 14.4185C2.55121 14.2756 2.61656 14.1397 2.69923 14.0143C2.79241 13.873 2.91499 13.7504 3.16014 13.5053L14.1654 2.50005C15.0859 1.57957 16.5782 1.57957 17.4987 2.50005C18.4192 3.42052 18.4192 4.91291 17.4987 5.83338L6.49347 16.8386C6.24832 17.0838 6.12574 17.2063 5.98444 17.2995C5.85907 17.3822 5.72311 17.4475 5.58024 17.4938C5.4192 17.5459 5.24691 17.5651 4.90234 17.6033L2.08203 17.9167L2.3954 15.0964Z" stroke="#344054" stroke-width="1.66667" stroke-linecap="round" stroke-linejoin="round"/>
</svg>
