<svg width="20" height="20" viewBox="0 0 20 20" fill="none" xmlns="http://www.w3.org/2000/svg">
<g clip-path="url(#clip0_48_17423)">
<path d="M9.1665 3.33369H5.6665C4.26637 3.33369 3.56631 3.33369 3.03153 3.60617C2.56112 3.84585 2.17867 4.2283 1.93899 4.69871C1.6665 5.23349 1.6665 5.93355 1.6665 7.33369V14.3337C1.6665 15.7338 1.6665 16.4339 1.93899 16.9687C2.17867 17.4391 2.56112 17.8215 3.03153 18.0612C3.56631 18.3337 4.26637 18.3337 5.6665 18.3337H12.6665C14.0666 18.3337 14.7667 18.3337 15.3015 18.0612C15.7719 17.8215 16.1543 17.4391 16.394 16.9687C16.6665 16.4339 16.6665 15.7338 16.6665 14.3337V10.8337M6.66648 13.3337H8.06193C8.46959 13.3337 8.67341 13.3337 8.86522 13.2876C9.03528 13.2468 9.19786 13.1795 9.34698 13.0881C9.51517 12.985 9.6593 12.8409 9.94755 12.5526L17.9165 4.58369C18.6069 3.89333 18.6069 2.77404 17.9165 2.08369C17.2261 1.39333 16.1069 1.39333 15.4165 2.08368L7.44753 10.0526C7.15928 10.3409 7.01515 10.485 6.91208 10.6532C6.8207 10.8023 6.75336 10.9649 6.71253 11.135C6.66648 11.3268 6.66648 11.5306 6.66648 11.9383V13.3337Z" stroke="#344054" stroke-width="1.66667" stroke-linecap="round" stroke-linejoin="round"/>
</g>
<defs>
<clipPath id="clip0_48_17423">
<rect width="20" height="20" fill="white"/>
</clipPath>
</defs>
</svg>
