<svg width="20" height="21" viewBox="0 0 20 21" fill="none" xmlns="http://www.w3.org/2000/svg">
<path d="M8.74537 11.4415L17.4954 2.69155M8.85169 11.7149L11.0418 17.3466C11.2347 17.8427 11.3312 18.0908 11.4702 18.1632C11.5907 18.226 11.7342 18.2261 11.8548 18.1634C11.9939 18.0912 12.0906 17.8432 12.2842 17.3473L17.7761 3.27421C17.9508 2.82656 18.0382 2.60274 17.9904 2.45972C17.9489 2.33551 17.8514 2.23804 17.7272 2.19654C17.5842 2.14876 17.3604 2.23611 16.9127 2.4108L2.83958 7.90275C2.34369 8.09627 2.09574 8.19303 2.02348 8.33212C1.96084 8.45269 1.96093 8.59623 2.02371 8.71673C2.09613 8.85573 2.34419 8.9522 2.84031 9.14514L8.47198 11.3352C8.57269 11.3744 8.62304 11.394 8.66544 11.4242C8.70302 11.451 8.73589 11.4839 8.7627 11.5215C8.79294 11.5639 8.81252 11.6142 8.85169 11.7149Z" stroke="#344054" stroke-width="1.66667" stroke-linecap="round" stroke-linejoin="round"/>
</svg>
