<svg width="56" height="56" viewBox="0 0 56 56" fill="none" xmlns="http://www.w3.org/2000/svg">
<rect x="4" y="4" width="48" height="48" rx="24" fill="#0169FA" fill-opacity="0.2"/>
<rect x="2" y="2" width="52" height="52" rx="26" stroke="#0169FA" stroke-opacity="0.1" stroke-width="4"/>
<path d="M35.914 33.0007L30.3783 28.0007M25.6164 28.0007L20.0808 33.0007M19.6641 23.834L26.4682 28.5969C27.0191 28.9825 27.2946 29.1754 27.5943 29.2501C27.859 29.3161 28.1358 29.3161 28.4005 29.2501C28.7002 29.1754 28.9757 28.9825 29.5266 28.5969L36.3307 23.834M23.6641 34.6673H32.3307C33.7309 34.6673 34.4309 34.6673 34.9657 34.3948C35.4361 34.1552 35.8186 33.7727 36.0582 33.3023C36.3307 32.7675 36.3307 32.0674 36.3307 30.6673V25.334C36.3307 23.9339 36.3307 23.2338 36.0582 22.699C35.8186 22.2286 35.4361 21.8462 34.9657 21.6065C34.4309 21.334 33.7309 21.334 32.3307 21.334H23.6641C22.2639 21.334 21.5639 21.334 21.0291 21.6065C20.5587 21.8462 20.1762 22.2286 19.9365 22.699C19.6641 23.2338 19.6641 23.9339 19.6641 25.334V30.6673C19.6641 32.0674 19.6641 32.7675 19.9365 33.3023C20.1762 33.7727 20.5587 34.1552 21.0291 34.3948C21.5639 34.6673 22.2639 34.6673 23.6641 34.6673Z" stroke="#0169FA" stroke-width="1.66667" stroke-linecap="round" stroke-linejoin="round"/>
</svg>
