<svg width="20" height="16" viewBox="0 0 20 16" fill="none" xmlns="http://www.w3.org/2000/svg">
<path d="M17.914 13.0007L12.3783 8.00065M7.61644 8.00065L2.08076 13.0007M1.66406 3.83398L8.46816 8.59685C9.01914 8.98254 9.29463 9.17538 9.59428 9.25007C9.85897 9.31605 10.1358 9.31605 10.4005 9.25007C10.7002 9.17538 10.9757 8.98254 11.5266 8.59685L18.3307 3.83398M5.66406 14.6673H14.3307C15.7309 14.6673 16.4309 14.6673 16.9657 14.3948C17.4361 14.1552 17.8186 13.7727 18.0582 13.3023C18.3307 12.7675 18.3307 12.0674 18.3307 10.6673V5.33398C18.3307 3.93385 18.3307 3.23379 18.0582 2.69901C17.8186 2.2286 17.4361 1.84615 16.9657 1.60647C16.4309 1.33398 15.7309 1.33398 14.3307 1.33398H5.66406C4.26393 1.33398 3.56387 1.33398 3.02909 1.60647C2.55868 1.84615 2.17623 2.2286 1.93655 2.69901C1.66406 3.23379 1.66406 3.93385 1.66406 5.33398V10.6673C1.66406 12.0674 1.66406 12.7675 1.93655 13.3023C2.17623 13.7727 2.55868 14.1552 3.02909 14.3948C3.56387 14.6673 4.26393 14.6673 5.66406 14.6673Z" stroke="#263238" stroke-width="1.66667" stroke-linecap="round" stroke-linejoin="round"/>
</svg>
