<svg width="20" height="21" viewBox="0 0 20 21" fill="none" xmlns="http://www.w3.org/2000/svg">
<path d="M2.01677 10.7851C1.90328 10.6054 1.84654 10.5155 1.81477 10.3769C1.79091 10.2728 1.79091 10.1087 1.81477 10.0046C1.84654 9.86599 1.90328 9.77614 2.01677 9.59644C2.95461 8.11146 5.74617 4.35742 10.0003 4.35742C14.2545 4.35742 17.0461 8.11146 17.9839 9.59644C18.0974 9.77614 18.1541 9.86599 18.1859 10.0046C18.2098 10.1087 18.2098 10.2728 18.1859 10.3769C18.1541 10.5155 18.0974 10.6054 17.9839 10.7851C17.0461 12.2701 14.2545 16.0241 10.0003 16.0241C5.74617 16.0241 2.95461 12.2701 2.01677 10.7851Z" stroke="#344054" stroke-width="1.66667" stroke-linecap="round" stroke-linejoin="round"/>
<path d="M10.0003 12.6908C11.381 12.6908 12.5003 11.5715 12.5003 10.1908C12.5003 8.81004 11.381 7.69076 10.0003 7.69076C8.61962 7.69076 7.50034 8.81004 7.50034 10.1908C7.50034 11.5715 8.61962 12.6908 10.0003 12.6908Z" stroke="#344054" stroke-width="1.66667" stroke-linecap="round" stroke-linejoin="round"/>
</svg>
