<svg width="22" height="22" viewBox="0 0 22 22" fill="none" xmlns="http://www.w3.org/2000/svg">
<path d="M10.3421 3.16556C10.5534 2.73753 10.659 2.52352 10.8024 2.45514C10.9272 2.39565 11.0722 2.39565 11.1969 2.45514C11.3404 2.52352 11.446 2.73753 11.6573 3.16556L13.6617 7.22636C13.7241 7.35273 13.7553 7.41591 13.8009 7.46496C13.8412 7.5084 13.8896 7.54359 13.9434 7.56859C14.0041 7.59683 14.0738 7.60702 14.2133 7.6274L18.6969 8.28275C19.1691 8.35176 19.4051 8.38627 19.5144 8.50159C19.6094 8.60192 19.6542 8.73979 19.6361 8.87681C19.6153 9.0343 19.4443 9.20077 19.1025 9.5337L15.8593 12.6926C15.7582 12.791 15.7077 12.8403 15.6751 12.8989C15.6462 12.9507 15.6277 13.0077 15.6205 13.0667C15.6124 13.1332 15.6244 13.2028 15.6482 13.3419L16.4135 17.8036C16.4942 18.2742 16.5345 18.5095 16.4587 18.6491C16.3927 18.7706 16.2754 18.8558 16.1395 18.881C15.9832 18.91 15.7719 18.7989 15.3494 18.5766L11.341 16.4687C11.2161 16.403 11.1537 16.3702 11.0879 16.3573C11.0296 16.3459 10.9697 16.3459 10.9115 16.3573C10.8457 16.3702 10.7832 16.403 10.6584 16.4687L6.65002 18.5766C6.22743 18.7989 6.01613 18.91 5.8599 18.881C5.72397 18.8558 5.60667 18.7706 5.54068 18.6491C5.46484 18.5095 5.5052 18.2742 5.58591 17.8036L6.35115 13.3419C6.37501 13.2028 6.38694 13.1332 6.37887 13.0667C6.37172 13.0077 6.35319 12.9507 6.32431 12.8989C6.29169 12.8403 6.24114 12.791 6.14004 12.6926L2.89685 9.5337C2.55503 9.20077 2.38412 9.0343 2.36332 8.87681C2.34523 8.73979 2.38993 8.60192 2.48499 8.50159C2.59424 8.38627 2.83031 8.35176 3.30246 8.28275L7.78613 7.6274C7.92556 7.60702 7.99528 7.59683 8.056 7.56859C8.10976 7.54359 8.15816 7.5084 8.19851 7.46496C8.24409 7.41591 8.27528 7.35273 8.33765 7.22636L10.3421 3.16556Z" fill="#0169FA"/>
</svg>
