<svg width="45" height="45" viewBox="0 0 45 45" fill="none" xmlns="http://www.w3.org/2000/svg">
<rect x="0.5" y="0.5" width="43.7018" height="43.7018" rx="21.8509" stroke="url(#paint0_linear_15_24617)"/>
<path d="M22 38C30.8366 38 38 30.8366 38 22C38 13.1634 30.8366 6 22 6C13.1634 6 6 13.1634 6 22C6 30.8366 13.1634 38 22 38Z" fill="white"/>
<path d="M22 38C30.8366 38 38 30.8366 38 22C38 13.1634 30.8366 6 22 6C13.1634 6 6 13.1634 6 22C6 30.8366 13.1634 38 22 38Z" fill="url(#paint1_linear_15_24617)"/>
<path fill-rule="evenodd" clip-rule="evenodd" d="M26.9294 30.2751C25.9406 31.2227 24.8496 31.075 23.8097 30.6282C22.7041 30.1725 21.6933 30.1436 20.5257 30.6282C19.0716 31.2479 18.2999 31.0677 17.4242 30.2751C12.48 25.2493 13.2098 17.5935 18.829 17.3053C20.1918 17.3773 21.146 18.0492 21.9487 18.1051C23.1419 17.8655 24.284 17.1792 25.5611 17.2692C27.0954 17.3917 28.243 17.9898 29.0092 19.0652C25.853 20.9386 26.601 25.0458 29.5 26.1986C28.9198 27.7028 28.1755 29.1889 26.9276 30.2878L26.9294 30.2751ZM21.8393 17.2512C21.6915 15.0175 23.525 13.1801 25.6341 13C25.9241 15.576 23.2623 17.5034 21.8393 17.2512Z" fill="#121826"/>
<g clip-path="url(#clip0_15_24617)">
<rect x="6" y="6" width="32" height="32" rx="16" fill="#0169FA"/>
<path d="M26.375 26.375C26.375 27.038 26.1116 27.6739 25.6428 28.1428C25.1739 28.6116 24.538 28.875 23.875 28.875C22.8047 28.875 21.7695 28.1773 21.4141 27.2172C21.36 27.0626 21.3687 26.893 21.4384 26.7448C21.5081 26.5966 21.6332 26.4816 21.7868 26.4247C21.9403 26.3678 22.1101 26.3734 22.2596 26.4404C22.409 26.5074 22.5262 26.6303 22.5859 26.7828C22.7609 27.2555 23.3281 27.625 23.875 27.625C24.2065 27.625 24.5245 27.4933 24.7589 27.2589C24.9933 27.0245 25.125 26.7065 25.125 26.375C25.125 26.0435 24.9933 25.7255 24.7589 25.4911C24.5245 25.2567 24.2065 25.125 23.875 25.125H15.125C14.9592 25.125 14.8003 25.0592 14.6831 24.9419C14.5658 24.8247 14.5 24.6658 14.5 24.5C14.5 24.3342 14.5658 24.1753 14.6831 24.0581C14.8003 23.9408 14.9592 23.875 15.125 23.875H23.875C24.538 23.875 25.1739 24.1384 25.6428 24.6072C26.1116 25.0761 26.375 25.712 26.375 26.375ZM21.375 20.125C22.038 20.125 22.6739 19.8616 23.1428 19.3928C23.6116 18.9239 23.875 18.288 23.875 17.625C23.875 16.962 23.6116 16.3261 23.1428 15.8572C22.6739 15.3884 22.038 15.125 21.375 15.125C20.3047 15.125 19.2695 15.8227 18.9141 16.7828C18.86 16.9374 18.8687 17.107 18.9384 17.2552C19.0081 17.4034 19.1332 17.5183 19.2868 17.5753C19.4403 17.6322 19.6101 17.6266 19.7596 17.5596C19.909 17.4926 20.0262 17.3697 20.0859 17.2172C20.2609 16.7445 20.8281 16.375 21.375 16.375C21.7065 16.375 22.0245 16.5067 22.2589 16.7411C22.4933 16.9755 22.625 17.2935 22.625 17.625C22.625 17.9565 22.4933 18.2745 22.2589 18.5089C22.0245 18.7433 21.7065 18.875 21.375 18.875H13.875C13.7092 18.875 13.5503 18.9408 13.4331 19.0581C13.3158 19.1753 13.25 19.3342 13.25 19.5C13.25 19.6658 13.3158 19.8247 13.4331 19.9419C13.5503 20.0592 13.7092 20.125 13.875 20.125H21.375ZM28.25 17.625C27.1797 17.625 26.1445 18.3227 25.7891 19.2828C25.735 19.4374 25.7437 19.607 25.8134 19.7552C25.8831 19.9034 26.0082 20.0183 26.1618 20.0753C26.3153 20.1322 26.4851 20.1266 26.6346 20.0596C26.784 19.9926 26.9012 19.8697 26.9609 19.7172C27.1359 19.2445 27.7031 18.875 28.25 18.875C28.5815 18.875 28.8995 19.0067 29.1339 19.2411C29.3683 19.4755 29.5 19.7935 29.5 20.125C29.5 20.4565 29.3683 20.7745 29.1339 21.0089C28.8995 21.2433 28.5815 21.375 28.25 21.375H14.5C14.3342 21.375 14.1753 21.4408 14.0581 21.5581C13.9408 21.6753 13.875 21.8342 13.875 22C13.875 22.1658 13.9408 22.3247 14.0581 22.4419C14.1753 22.5592 14.3342 22.625 14.5 22.625H28.25C28.913 22.625 29.5489 22.3616 30.0178 21.8928C30.4866 21.4239 30.75 20.788 30.75 20.125C30.75 19.462 30.4866 18.8261 30.0178 18.3572C29.5489 17.8884 28.913 17.625 28.25 17.625Z" fill="white"/>
<rect x="6" y="6" width="32" height="32" rx="16" fill="#0169FA"/>
<path d="M28.6654 20.6842L28.6654 18.0176C28.6654 16.6174 28.6654 15.9174 28.3929 15.3826C28.1532 14.9122 27.7707 14.5297 27.3003 14.2901C26.7656 14.0176 26.0655 14.0176 24.6654 14.0176H19.332C17.9319 14.0176 17.2318 14.0176 16.6971 14.2901C16.2266 14.5297 15.8442 14.9122 15.6045 15.3826C15.332 15.9174 15.332 16.6174 15.332 18.0176L15.332 26.6842C15.332 28.0844 15.332 28.7844 15.6045 29.3192C15.8442 29.7896 16.2267 30.1721 16.6971 30.4118C17.2318 30.6842 17.9319 30.6842 19.332 30.6842H20.7487M22.832 21.5176H18.6654M21.1654 24.8509H18.6654M25.332 18.1842H18.6654M28.0404 26.5176L28.0404 25.0592C28.0404 24.2538 27.3874 23.6009 26.582 23.6009C25.7766 23.6009 25.1237 24.2538 25.1237 25.0592L25.1237 26.5176M24.9987 29.8509H28.1654C28.6321 29.8509 28.8654 29.8509 29.0437 29.7601C29.2005 29.6802 29.328 29.5527 29.4079 29.3959C29.4987 29.2176 29.4987 28.9843 29.4987 28.5176L29.4987 27.8509C29.4987 27.3842 29.4987 27.1508 29.4079 26.9726C29.328 26.8158 29.2005 26.6883 29.0437 26.6084C28.8654 26.5176 28.6321 26.5176 28.1654 26.5176H24.9987C24.532 26.5176 24.2986 26.5176 24.1204 26.6084C23.9636 26.6883 23.8361 26.8158 23.7562 26.9726C23.6654 27.1508 23.6654 27.3842 23.6654 27.8509L23.6654 28.5176C23.6654 28.9843 23.6654 29.2176 23.7562 29.3959C23.8361 29.5527 23.9636 29.6802 24.1204 29.7601C24.2986 29.8509 24.532 29.8509 24.9987 29.8509Z" stroke="white" stroke-width="1.66667" stroke-linecap="round" stroke-linejoin="round"/>
</g>
<defs>
<linearGradient id="paint0_linear_15_24617" x1="22.3509" y1="0" x2="22.3509" y2="44.7018" gradientUnits="userSpaceOnUse">
<stop stop-color="#0169FA"/>
<stop offset="0.863468" stop-color="white"/>
</linearGradient>
<linearGradient id="paint1_linear_15_24617" x1="11" y1="7.5" x2="38.293" y2="41.5664" gradientUnits="userSpaceOnUse">
<stop stop-color="#FBFCFC"/>
<stop offset="1" stop-color="#989898"/>
</linearGradient>
<clipPath id="clip0_15_24617">
<rect x="6" y="6" width="32" height="32" rx="16" fill="white"/>
</clipPath>
</defs>
</svg>
