<svg width="20" height="20" viewBox="0 0 20 20" fill="none" xmlns="http://www.w3.org/2000/svg">
<path d="M10.0026 10.8327C10.4628 10.8327 10.8359 10.4596 10.8359 9.99935C10.8359 9.53911 10.4628 9.16602 10.0026 9.16602C9.54237 9.16602 9.16927 9.53911 9.16927 9.99935C9.16927 10.4596 9.54237 10.8327 10.0026 10.8327Z" stroke="#0169FA" stroke-width="1.66667" stroke-linecap="round" stroke-linejoin="round"/>
<path d="M15.8359 10.8327C16.2962 10.8327 16.6693 10.4596 16.6693 9.99935C16.6693 9.53911 16.2962 9.16602 15.8359 9.16602C15.3757 9.16602 15.0026 9.53911 15.0026 9.99935C15.0026 10.4596 15.3757 10.8327 15.8359 10.8327Z" stroke="#0169FA" stroke-width="1.66667" stroke-linecap="round" stroke-linejoin="round"/>
<path d="M4.16927 10.8327C4.62951 10.8327 5.0026 10.4596 5.0026 9.99935C5.0026 9.53911 4.62951 9.16602 4.16927 9.16602C3.70903 9.16602 3.33594 9.53911 3.33594 9.99935C3.33594 10.4596 3.70903 10.8327 4.16927 10.8327Z" stroke="#0169FA" stroke-width="1.66667" stroke-linecap="round" stroke-linejoin="round"/>
</svg>
