<svg width="20" height="20" viewBox="0 0 20 20" fill="none" xmlns="http://www.w3.org/2000/svg">
<path d="M15.8776 4.09107C15.1136 3.31934 14.2036 2.70745 13.2006 2.29111C12.1977 1.87476 11.1219 1.66228 10.0359 1.66607C5.48594 1.66607 1.7776 5.3744 1.7776 9.9244C1.7776 11.3827 2.16094 12.7994 2.8776 14.0494L1.71094 18.3327L6.08594 17.1827C7.29427 17.8411 8.6526 18.1911 10.0359 18.1911C14.5859 18.1911 18.2943 14.4827 18.2943 9.93273C18.2943 7.7244 17.4359 5.6494 15.8776 4.09107ZM10.0359 16.7911C8.8026 16.7911 7.59427 16.4577 6.53594 15.8327L6.28594 15.6827L3.68594 16.3661L4.3776 13.8327L4.21094 13.5744C3.52573 12.4802 3.16189 11.2154 3.16094 9.9244C3.16094 6.14106 6.24427 3.05773 10.0276 3.05773C11.8609 3.05773 13.5859 3.7744 14.8776 5.0744C15.5172 5.71103 16.024 6.46828 16.3688 7.30225C16.7135 8.13622 16.8893 9.03032 16.8859 9.93273C16.9026 13.7161 13.8193 16.7911 10.0359 16.7911ZM13.8026 11.6577C13.5943 11.5577 12.5776 11.0577 12.3943 10.9827C12.2026 10.9161 12.0693 10.8827 11.9276 11.0827C11.7859 11.2911 11.3943 11.7577 11.2776 11.8911C11.1609 12.0327 11.0359 12.0494 10.8276 11.9411C10.6193 11.8411 9.9526 11.6161 9.16927 10.9161C8.5526 10.3661 8.14427 9.69106 8.01927 9.48273C7.9026 9.2744 8.0026 9.16606 8.11094 9.05773C8.2026 8.96606 8.31927 8.81606 8.41927 8.6994C8.51927 8.58273 8.56094 8.49106 8.6276 8.35773C8.69427 8.21606 8.66094 8.0994 8.61094 7.9994C8.56094 7.8994 8.14427 6.88273 7.9776 6.46607C7.81094 6.06607 7.63594 6.11607 7.51094 6.10773H7.11094C6.96927 6.10773 6.7526 6.15773 6.56094 6.36607C6.3776 6.5744 5.84427 7.0744 5.84427 8.09107C5.84427 9.10773 6.58594 10.0911 6.68594 10.2244C6.78594 10.3661 8.14427 12.4494 10.2109 13.3411C10.7026 13.5577 11.0859 13.6827 11.3859 13.7744C11.8776 13.9327 12.3276 13.9077 12.6859 13.8577C13.0859 13.7994 13.9109 13.3577 14.0776 12.8744C14.2526 12.3911 14.2526 11.9827 14.1943 11.8911C14.1359 11.7994 14.0109 11.7577 13.8026 11.6577Z" fill="#0169FA"/>
</svg>
