<svg width="56" height="56" viewBox="0 0 56 56" fill="none" xmlns="http://www.w3.org/2000/svg">
<rect x="4" y="4" width="48" height="48" rx="24" fill="#0169FA" fill-opacity="0.2"/>
<rect x="2" y="2" width="52" height="52" rx="26" stroke="#0169FA" stroke-opacity="0.1" stroke-width="4"/>
<path d="M22.9974 27.1673V30.5006M32.9974 25.5006V28.834M32.1641 21.334C34.2047 21.334 35.3083 21.6463 35.8575 21.8885C35.9306 21.9208 35.9672 21.9369 36.0727 22.0376C36.136 22.098 36.2515 22.2751 36.2812 22.3574C36.3307 22.4946 36.3307 22.5696 36.3307 22.7196V31.6766C36.3307 32.4339 36.3307 32.8126 36.2172 33.0072C36.1016 33.2052 35.9902 33.2972 35.774 33.3733C35.5614 33.4481 35.1324 33.3657 34.2742 33.2008C33.6735 33.0854 32.9612 33.0006 32.1641 33.0006C29.6641 33.0006 27.1641 34.6673 23.8307 34.6673C21.7901 34.6673 20.6865 34.355 20.1373 34.1128C20.0642 34.0805 20.0276 34.0644 19.9221 33.9637C19.8588 33.9033 19.7433 33.7262 19.7136 33.6439C19.6641 33.5067 19.6641 33.4317 19.6641 33.2817L19.6641 24.3247C19.6641 23.5674 19.6641 23.1887 19.7776 22.9941C19.8931 22.7961 20.0046 22.7041 20.2208 22.628C20.4333 22.5532 20.8624 22.6356 21.7206 22.8005C22.3212 22.9159 23.0336 23.0007 23.8307 23.0007C26.3307 23.0007 28.8307 21.334 32.1641 21.334ZM30.0807 28.0006C30.0807 29.1512 29.148 30.084 27.9974 30.084C26.8468 30.084 25.9141 29.1512 25.9141 28.0006C25.9141 26.8501 26.8468 25.9173 27.9974 25.9173C29.148 25.9173 30.0807 26.8501 30.0807 28.0006Z" stroke="#0169FA" stroke-width="1.66667" stroke-linecap="round" stroke-linejoin="round"/>
</svg>
