<svg width="20" height="20" viewBox="0 0 20 20" fill="none" xmlns="http://www.w3.org/2000/svg">
<path d="M17.914 15.0007L12.3783 10.0007M7.61644 10.0007L2.08076 15.0007M1.66406 5.83398L8.46816 10.5969C9.01914 10.9825 9.29463 11.1754 9.59428 11.2501C9.85897 11.3161 10.1358 11.3161 10.4005 11.2501C10.7002 11.1754 10.9757 10.9825 11.5266 10.5969L18.3307 5.83398M5.66406 16.6673H14.3307C15.7309 16.6673 16.4309 16.6673 16.9657 16.3948C17.4361 16.1552 17.8186 15.7727 18.0582 15.3023C18.3307 14.7675 18.3307 14.0674 18.3307 12.6673V7.33398C18.3307 5.93385 18.3307 5.23379 18.0582 4.69901C17.8186 4.2286 17.4361 3.84615 16.9657 3.60647C16.4309 3.33398 15.7309 3.33398 14.3307 3.33398H5.66406C4.26393 3.33398 3.56387 3.33398 3.02909 3.60647C2.55868 3.84615 2.17623 4.2286 1.93655 4.69901C1.66406 5.23379 1.66406 5.93385 1.66406 7.33398V12.6673C1.66406 14.0674 1.66406 14.7675 1.93655 15.3023C2.17623 15.7727 2.55868 16.1552 3.02909 16.3948C3.56387 16.6673 4.26393 16.6673 5.66406 16.6673Z" stroke="#0169FA" stroke-width="1.66667" stroke-linecap="round" stroke-linejoin="round"/>
</svg>
