<svg width="56" height="56" viewBox="0 0 56 56" fill="none" xmlns="http://www.w3.org/2000/svg">
<rect x="4" y="4" width="48" height="48" rx="24" fill="#0169FA" fill-opacity="0.2"/>
<rect x="2" y="2" width="52" height="52" rx="26" stroke="#0169FA" stroke-opacity="0.1" stroke-width="4"/>
<path d="M27.9974 32.1667C27.9974 34.4679 29.8629 36.3333 32.1641 36.3333C34.4652 36.3333 36.3307 34.4679 36.3307 32.1667C36.3307 29.8655 34.4652 28 32.1641 28C29.8629 28 27.9974 29.8655 27.9974 32.1667ZM27.9974 32.1667C27.9974 31.2285 28.3075 30.3627 28.8307 29.6663V22.1667M27.9974 32.1667C27.9974 32.8545 28.164 33.5033 28.4592 34.0751C27.7571 34.6681 26.1356 35.0833 24.2474 35.0833C21.7161 35.0833 19.6641 34.3371 19.6641 33.4167V22.1667M28.8307 22.1667C28.8307 23.0871 26.7787 23.8333 24.2474 23.8333C21.7161 23.8333 19.6641 23.0871 19.6641 22.1667M28.8307 22.1667C28.8307 21.2462 26.7787 20.5 24.2474 20.5C21.7161 20.5 19.6641 21.2462 19.6641 22.1667M19.6641 29.6667C19.6641 30.5871 21.7161 31.3333 24.2474 31.3333C26.0716 31.3333 27.6468 30.9458 28.3846 30.3848M28.8307 25.9167C28.8307 26.8371 26.7787 27.5833 24.2474 27.5833C21.7161 27.5833 19.6641 26.8371 19.6641 25.9167" stroke="#0169FA" stroke-width="1.66667" stroke-linecap="round" stroke-linejoin="round"/>
</svg>
