<svg width="40" height="40" viewBox="0 0 40 40" fill="none" xmlns="http://www.w3.org/2000/svg">
<rect width="40" height="40" rx="20" fill="#0169FA" fill-opacity="0.1"/>
<path d="M21.6693 11.8925V15.3346C21.6693 15.8013 21.6693 16.0347 21.7601 16.213C21.84 16.3698 21.9675 16.4972 22.1243 16.5771C22.3025 16.668 22.5359 16.668 23.0026 16.668H26.4447M26.6693 18.3248V24.3346C26.6693 25.7348 26.6693 26.4348 26.3968 26.9696C26.1571 27.44 25.7747 27.8225 25.3042 28.0622C24.7695 28.3346 24.0694 28.3346 22.6693 28.3346H17.3359C15.9358 28.3346 15.2357 28.3346 14.701 28.0622C14.2306 27.8225 13.8481 27.44 13.6084 26.9696C13.3359 26.4348 13.3359 25.7348 13.3359 24.3346V15.668C13.3359 14.2678 13.3359 13.5678 13.6084 13.033C13.8481 12.5626 14.2306 12.1801 14.701 11.9405C15.2357 11.668 15.9358 11.668 17.3359 11.668H20.0124C20.6239 11.668 20.9296 11.668 21.2173 11.737C21.4724 11.7983 21.7163 11.8993 21.94 12.0364C22.1923 12.191 22.4085 12.4072 22.8408 12.8395L25.4977 15.4964C25.9301 15.9288 26.1463 16.145 26.3009 16.3973C26.4379 16.6209 26.539 16.8648 26.6002 17.1199C26.6693 17.4076 26.6693 17.7133 26.6693 18.3248Z" stroke="#0169FA" stroke-width="1.66667" stroke-linecap="round" stroke-linejoin="round"/>
</svg>
