<svg width="20" height="20" viewBox="0 0 20 20" fill="none" xmlns="http://www.w3.org/2000/svg">
<g clip-path="url(#clip0_1_46530)">
<path d="M9.17187 3.33222H5.67188C4.27174 3.33222 3.57168 3.33222 3.0369 3.6047C2.56649 3.84439 2.18404 4.22684 1.94436 4.69724C1.67188 5.23202 1.67188 5.93209 1.67188 7.33222V14.3322C1.67188 15.7324 1.67188 16.4324 1.94436 16.9672C2.18404 17.4376 2.56649 17.8201 3.0369 18.0597C3.57168 18.3322 4.27174 18.3322 5.67187 18.3322H12.6719C14.072 18.3322 14.7721 18.3322 15.3069 18.0597C15.7773 17.8201 16.1597 17.4376 16.3994 16.9672C16.6719 16.4324 16.6719 15.7324 16.6719 14.3322V10.8322M6.67185 13.3322H8.06731C8.47496 13.3322 8.67878 13.3322 8.87059 13.2862C9.04066 13.2453 9.20323 13.178 9.35235 13.0866C9.52054 12.9836 9.66467 12.8394 9.95292 12.5512L17.9219 4.58222C18.6122 3.89187 18.6122 2.77258 17.9219 2.08222C17.2315 1.39186 16.1122 1.39186 15.4219 2.08222L7.4529 10.0512C7.16465 10.3394 7.02052 10.4836 6.91745 10.6517C6.82607 10.8009 6.75873 10.9634 6.7179 11.1335C6.67185 11.3253 6.67185 11.5291 6.67185 11.9368V13.3322Z" stroke="#0169FA" stroke-width="1.70833" stroke-linecap="round" stroke-linejoin="round"/>
</g>
<defs>
<clipPath id="clip0_1_46530">
<rect width="20" height="20" fill="white"/>
</clipPath>
</defs>
</svg>
