<svg width="18" height="19" viewBox="0 0 18 19" fill="none" xmlns="http://www.w3.org/2000/svg">
<path d="M9 6.70703L9 9.70703M9 12.707L8.9925 12.707M12.15 2.95703L5.85 2.95703C4.58988 2.95703 3.95982 2.95703 3.47852 3.20227C3.05516 3.41798 2.71095 3.76219 2.49524 4.18555C2.25 4.66685 2.25 5.29691 2.25 6.55703L2.25 12.857C2.25 14.1171 2.25 14.7472 2.49524 15.2285C2.71095 15.6519 3.05516 15.9961 3.47852 16.2118C3.95982 16.457 4.58988 16.457 5.85 16.457L12.15 16.457C13.4101 16.457 14.0402 16.457 14.5215 16.2118C14.9448 15.9961 15.289 15.6519 15.5048 15.2285C15.75 14.7472 15.75 14.1171 15.75 12.857L15.75 6.55703C15.75 5.29691 15.75 4.66685 15.5048 4.18555C15.2891 3.76219 14.9448 3.41798 14.5215 3.20227C14.0402 2.95703 13.4101 2.95703 12.15 2.95703Z" stroke="#F04438" stroke-width="1.5" stroke-linecap="round" stroke-linejoin="round"/>
</svg>
