<svg width="47" height="46" viewBox="0 0 47 46" fill="none" xmlns="http://www.w3.org/2000/svg">
<rect x="3.25" y="3" width="40" height="40" rx="20" fill="#F2F4F7"/>
<rect x="3.25" y="3" width="40" height="40" rx="20" stroke="#F9FAFB" stroke-width="6"/>
<path d="M19.9141 26.3333L23.2474 23M23.2474 23L26.5807 26.3333M23.2474 23V30.5M29.9141 26.9524C30.932 26.1117 31.5807 24.8399 31.5807 23.4167C31.5807 20.8854 29.5287 18.8333 26.9974 18.8333C26.8153 18.8333 26.6449 18.7383 26.5525 18.5814C25.4658 16.7374 23.4594 15.5 21.1641 15.5C17.7123 15.5 14.9141 18.2982 14.9141 21.75C14.9141 23.4718 15.6103 25.0309 16.7365 26.1613" stroke="#475467" stroke-width="1.66667" stroke-linecap="round" stroke-linejoin="round"/>
</svg>
