<svg width="20" height="21" viewBox="0 0 20 21" fill="none" xmlns="http://www.w3.org/2000/svg">
<path d="M12.8333 5.4974V4.83073C12.8333 3.89731 12.8333 3.4306 12.6517 3.07408C12.4919 2.76047 12.2369 2.50551 11.9233 2.34572C11.5668 2.16406 11.1001 2.16406 10.1667 2.16406H8.83333C7.89991 2.16406 7.4332 2.16406 7.07668 2.34572C6.76308 2.50551 6.50811 2.76047 6.34832 3.07408C6.16667 3.4306 6.16667 3.89731 6.16667 4.83073V5.4974M7.83333 10.0807V14.2474M11.1667 10.0807V14.2474M2 5.4974H17M15.3333 5.4974V14.8307C15.3333 16.2309 15.3333 16.9309 15.0608 17.4657C14.8212 17.9361 14.4387 18.3186 13.9683 18.5582C13.4335 18.8307 12.7335 18.8307 11.3333 18.8307H7.66667C6.26654 18.8307 5.56647 18.8307 5.03169 18.5582C4.56129 18.3186 4.17883 17.9361 3.93915 17.4657C3.66667 16.9309 3.66667 16.2309 3.66667 14.8307V5.4974" stroke="#D92D20" stroke-width="1.67" stroke-linecap="round" stroke-linejoin="round"/>
</svg>
