<svg width="45" height="46" viewBox="0 0 45 46" fill="none" xmlns="http://www.w3.org/2000/svg">
<rect x="0.5" y="1.14905" width="43.7018" height="43.7018" rx="21.8509" stroke="url(#paint0_linear_15_24768)"/>
<path d="M22 38.649C30.8366 38.649 38 31.4856 38 22.649C38 13.8125 30.8366 6.64905 22 6.64905C13.1634 6.64905 6 13.8125 6 22.649C6 31.4856 13.1634 38.649 22 38.649Z" fill="white"/>
<path d="M22 38.649C30.8366 38.649 38 31.4856 38 22.649C38 13.8125 30.8366 6.64905 22 6.64905C13.1634 6.64905 6 13.8125 6 22.649C6 31.4856 13.1634 38.649 22 38.649Z" fill="url(#paint1_linear_15_24768)"/>
<path fill-rule="evenodd" clip-rule="evenodd" d="M26.9294 30.9242C25.9406 31.8717 24.8496 31.724 23.8097 31.2773C22.7041 30.8215 21.6933 30.7927 20.5257 31.2773C19.0716 31.8969 18.2999 31.7168 17.4242 30.9242C12.48 25.8984 13.2098 18.2425 18.829 17.9543C20.1918 18.0264 21.146 18.6983 21.9487 18.7541C23.1419 18.5145 24.284 17.8282 25.5611 17.9183C27.0954 18.0408 28.243 18.6388 29.0092 19.7143C25.853 21.5877 26.601 25.6948 29.5 26.8477C28.9198 28.3518 28.1755 29.838 26.9276 30.9368L26.9294 30.9242ZM21.8393 17.9003C21.6915 15.6666 23.525 13.8292 25.6341 13.649C25.9241 16.225 23.2623 18.1525 21.8393 17.9003Z" fill="#121826"/>
<g clip-path="url(#clip0_15_24768)">
<rect x="6" y="6.64905" width="32" height="32" rx="16" fill="#0169FA"/>
<path d="M26.375 27.024C26.375 27.6871 26.1116 28.323 25.6428 28.7918C25.1739 29.2607 24.538 29.524 23.875 29.524C22.8047 29.524 21.7695 28.8264 21.4141 27.8662C21.36 27.7117 21.3687 27.542 21.4384 27.3938C21.5081 27.2456 21.6332 27.1307 21.7868 27.0738C21.9403 27.0169 22.1101 27.0225 22.2596 27.0895C22.409 27.1564 22.5262 27.2794 22.5859 27.4319C22.7609 27.9045 23.3281 28.274 23.875 28.274C24.2065 28.274 24.5245 28.1424 24.7589 27.9079C24.9933 27.6735 25.125 27.3556 25.125 27.024C25.125 26.6925 24.9933 26.3746 24.7589 26.1402C24.5245 25.9057 24.2065 25.774 23.875 25.774H15.125C14.9592 25.774 14.8003 25.7082 14.6831 25.591C14.5658 25.4738 14.5 25.3148 14.5 25.149C14.5 24.9833 14.5658 24.8243 14.6831 24.7071C14.8003 24.5899 14.9592 24.524 15.125 24.524H23.875C24.538 24.524 25.1739 24.7874 25.6428 25.2563C26.1116 25.7251 26.375 26.361 26.375 27.024ZM21.375 20.774C22.038 20.774 22.6739 20.5107 23.1428 20.0418C23.6116 19.573 23.875 18.9371 23.875 18.274C23.875 17.611 23.6116 16.9751 23.1428 16.5063C22.6739 16.0374 22.038 15.774 21.375 15.774C20.3047 15.774 19.2695 16.4717 18.9141 17.4319C18.86 17.5864 18.8687 17.7561 18.9384 17.9043C19.0081 18.0525 19.1332 18.1674 19.2868 18.2243C19.4403 18.2812 19.6101 18.2756 19.7596 18.2086C19.909 18.1417 20.0262 18.0187 20.0859 17.8662C20.2609 17.3936 20.8281 17.024 21.375 17.024C21.7065 17.024 22.0245 17.1557 22.2589 17.3902C22.4933 17.6246 22.625 17.9425 22.625 18.274C22.625 18.6056 22.4933 18.9235 22.2589 19.1579C22.0245 19.3924 21.7065 19.524 21.375 19.524H13.875C13.7092 19.524 13.5503 19.5899 13.4331 19.7071C13.3158 19.8243 13.25 19.9833 13.25 20.149C13.25 20.3148 13.3158 20.4738 13.4331 20.591C13.5503 20.7082 13.7092 20.774 13.875 20.774H21.375ZM28.25 18.274C27.1797 18.274 26.1445 18.9717 25.7891 19.9319C25.735 20.0864 25.7437 20.2561 25.8134 20.4043C25.8831 20.5525 26.0082 20.6674 26.1618 20.7243C26.3153 20.7812 26.4851 20.7756 26.6346 20.7086C26.784 20.6417 26.9012 20.5187 26.9609 20.3662C27.1359 19.8936 27.7031 19.524 28.25 19.524C28.5815 19.524 28.8995 19.6557 29.1339 19.8902C29.3683 20.1246 29.5 20.4425 29.5 20.774C29.5 21.1056 29.3683 21.4235 29.1339 21.6579C28.8995 21.8924 28.5815 22.024 28.25 22.024H14.5C14.3342 22.024 14.1753 22.0899 14.0581 22.2071C13.9408 22.3243 13.875 22.4833 13.875 22.649C13.875 22.8148 13.9408 22.9738 14.0581 23.091C14.1753 23.2082 14.3342 23.274 14.5 23.274H28.25C28.913 23.274 29.5489 23.0107 30.0178 22.5418C30.4866 22.073 30.75 21.4371 30.75 20.774C30.75 20.111 30.4866 19.4751 30.0178 19.0063C29.5489 18.5374 28.913 18.274 28.25 18.274Z" fill="white"/>
<rect x="6" y="6.64905" width="32" height="32" rx="16" fill="#0169FA"/>
<g clip-path="url(#clip1_15_24768)">
<path d="M25.3346 15.8898C26.5694 16.5034 27.418 17.7776 27.418 19.25C27.418 20.7224 26.5694 21.9966 25.3346 22.6102M27.0013 26.972C28.2608 27.5419 29.3951 28.4708 30.3346 29.6667M13.668 29.6667C15.29 27.6022 17.4923 26.3333 19.918 26.3333C22.3437 26.3333 24.5459 27.6022 26.168 29.6667M23.668 19.25C23.668 21.3211 21.989 23 19.918 23C17.8469 23 16.168 21.3211 16.168 19.25C16.168 17.1789 17.8469 15.5 19.918 15.5C21.989 15.5 23.668 17.1789 23.668 19.25Z" stroke="white" stroke-width="1.69339" stroke-linecap="round" stroke-linejoin="round"/>
</g>
</g>
<defs>
<linearGradient id="paint0_linear_15_24768" x1="22.3509" y1="0.649048" x2="22.3509" y2="45.3509" gradientUnits="userSpaceOnUse">
<stop stop-color="#0169FA"/>
<stop offset="0.863468" stop-color="white"/>
</linearGradient>
<linearGradient id="paint1_linear_15_24768" x1="11" y1="8.14905" x2="38.293" y2="42.2155" gradientUnits="userSpaceOnUse">
<stop stop-color="#FBFCFC"/>
<stop offset="1" stop-color="#989898"/>
</linearGradient>
<clipPath id="clip0_15_24768">
<rect x="6" y="6.64905" width="32" height="32" rx="16" fill="white"/>
</clipPath>
<clipPath id="clip1_15_24768">
<rect width="20" height="20" fill="white" transform="translate(12 13)"/>
</clipPath>
</defs>
</svg>
