<svg width="25" height="25" viewBox="0 0 25 25" fill="none" xmlns="http://www.w3.org/2000/svg">
<path d="M21.5 10.75H3.5M16.5 2.75V6.75M8.5 2.75V6.75M9.5 16.75L11.5 18.75L16 14.25M8.3 22.75H16.7C18.3802 22.75 19.2202 22.75 19.862 22.423C20.4265 22.1354 20.8854 21.6765 21.173 21.112C21.5 20.4702 21.5 19.6302 21.5 17.95V9.55C21.5 7.86984 21.5 7.02976 21.173 6.38803C20.8854 5.82354 20.4265 5.3646 19.862 5.07698C19.2202 4.75 18.3802 4.75 16.7 4.75H8.3C6.61984 4.75 5.77976 4.75 5.13803 5.07698C4.57354 5.3646 4.1146 5.82354 3.82698 6.38803C3.5 7.02976 3.5 7.86984 3.5 9.55V17.95C3.5 19.6302 3.5 20.4702 3.82698 21.112C4.1146 21.6765 4.57354 22.1354 5.13803 22.423C5.77976 22.75 6.61984 22.75 8.3 22.75Z" stroke="#0169FA" stroke-width="2.04167" stroke-linecap="round" stroke-linejoin="round"/>
</svg>
