<svg width="20" height="20" viewBox="0 0 20 20" fill="none" xmlns="http://www.w3.org/2000/svg">
<path d="M17.5 6.5C17.5 5.09987 17.5 4.3998 17.2275 3.86502C16.9878 3.39462 16.6054 3.01217 16.135 2.77248C15.6002 2.5 14.9001 2.5 13.5 2.5H6.5C5.09987 2.5 4.3998 2.5 3.86502 2.77248C3.39462 3.01217 3.01217 3.39462 2.77248 3.86502C2.5 4.3998 2.5 5.09987 2.5 6.5V11C2.5 12.4001 2.5 13.1002 2.77248 13.635C3.01217 14.1054 3.39462 14.4878 3.86502 14.7275C4.3998 15 5.09987 15 6.5 15H11.9302C12.4503 15 12.7103 15 12.959 15.051C13.1796 15.0963 13.3932 15.1712 13.5938 15.2737C13.8199 15.3892 14.0229 15.5517 14.429 15.8765L16.4169 17.4668C16.7636 17.7442 16.937 17.8829 17.0829 17.8831C17.2098 17.8832 17.3298 17.8255 17.409 17.7263C17.5 17.6123 17.5 17.3903 17.5 16.9463V6.5Z" stroke="#344054" stroke-width="1.66667" stroke-linecap="round" stroke-linejoin="round"/>
</svg>
