<svg width="19" height="42" viewBox="0 0 19 42" fill="none" xmlns="http://www.w3.org/2000/svg">
<g clip-path="url(#clip0_48_17468)">
<rect width="19" height="19" rx="9.5" fill="#F9F5FF"/>
<rect x="0.59375" y="0.59375" width="17.8125" height="17.8125" rx="8.90625" stroke="#667085" stroke-opacity="0.5" stroke-width="1.1875"/>
<path fill-rule="evenodd" clip-rule="evenodd" d="M13.5349 5.85056L7.86658 11.321L6.36242 9.7139C6.08533 9.45265 5.64992 9.43681 5.33325 9.65848C5.0245 9.88806 4.93741 10.2918 5.12741 10.6164L6.90867 13.5139C7.08283 13.7831 7.38366 13.9493 7.72408 13.9493C8.04867 13.9493 8.35742 13.7831 8.53158 13.5139C8.81658 13.1418 14.2553 6.65806 14.2553 6.65806C14.9678 5.92973 14.1049 5.28848 13.5349 5.84265V5.85056Z" fill="#667085" fill-opacity="0.5"/>
</g>
<rect x="8.5" y="23" width="2" height="15" rx="1" fill="#667085" fill-opacity="0.5"/>
<defs>
<clipPath id="clip0_48_17468">
<rect width="19" height="19" rx="9.5" fill="white"/>
</clipPath>
</defs>
</svg>
