<svg width="21" height="21" viewBox="0 0 21 21" fill="none" xmlns="http://www.w3.org/2000/svg">
<path d="M11.3327 6.30941L10.4031 4.45017C10.1355 3.91508 10.0017 3.64752 9.80216 3.45204C9.62566 3.27918 9.41295 3.14772 9.17941 3.06717C8.91532 2.97607 8.61619 2.97607 8.01792 2.97607H4.83268C3.89926 2.97607 3.43255 2.97607 3.07603 3.15773C2.76243 3.31752 2.50746 3.57249 2.34767 3.88609C2.16602 4.24261 2.16602 4.70932 2.16602 5.64274V6.30941M2.16602 6.30941H14.8327C16.2328 6.30941 16.9329 6.30941 17.4677 6.58189C17.9381 6.82157 18.3205 7.20403 18.5602 7.67443C18.8327 8.20921 18.8327 8.90928 18.8327 10.3094V13.9761C18.8327 15.3762 18.8327 16.0763 18.5602 16.611C18.3205 17.0815 17.9381 17.4639 17.4677 17.7036C16.9329 17.9761 16.2328 17.9761 14.8327 17.9761H6.16602C4.76588 17.9761 4.06582 17.9761 3.53104 17.7036C3.06063 17.4639 2.67818 17.0815 2.4385 16.611C2.16602 16.0763 2.16602 15.3762 2.16602 13.9761V6.30941ZM7.99935 12.1427L10.4993 14.6427M10.4993 14.6427L12.9993 12.1427M10.4993 14.6427V9.64274" stroke="#F04438" stroke-width="1.66667" stroke-linecap="round" stroke-linejoin="round"/>
</svg>
