<svg width="56" height="56" viewBox="0 0 56 56" fill="none" xmlns="http://www.w3.org/2000/svg">
<rect x="4" y="4" width="48" height="48" rx="24" fill="#0169FA" fill-opacity="0.2"/>
<rect x="2" y="2" width="52" height="52" rx="26" stroke="#0169FA" stroke-opacity="0.1" stroke-width="4"/>
<g clip-path="url(#clip0_1_45041)">
<path d="M28.8307 23.8333L27.9011 21.9741C27.6336 21.439 27.4998 21.1714 27.3002 20.976C27.1237 20.8031 26.911 20.6716 26.6775 20.5911C26.4134 20.5 26.1142 20.5 25.516 20.5H22.3307C21.3973 20.5 20.9306 20.5 20.5741 20.6817C20.2605 20.8414 20.0055 21.0964 19.8457 21.41C19.6641 21.7665 19.6641 22.2332 19.6641 23.1667V23.8333M19.6641 23.8333H32.3307C33.7309 23.8333 34.4309 23.8333 34.9657 24.1058C35.4361 24.3455 35.8186 24.728 36.0582 25.1984C36.3307 25.7331 36.3307 26.4332 36.3307 27.8333V31.5C36.3307 32.9001 36.3307 33.6002 36.0582 34.135C35.8186 34.6054 35.4361 34.9878 34.9657 35.2275C34.4309 35.5 33.7309 35.5 32.3307 35.5H23.6641C22.2639 35.5 21.5639 35.5 21.0291 35.2275C20.5587 34.9878 20.1762 34.6054 19.9365 34.135C19.6641 33.6002 19.6641 32.9001 19.6641 31.5V23.8333Z" stroke="#0169FA" stroke-width="1.66667" stroke-linecap="round" stroke-linejoin="round"/>
</g>
<defs>
<clipPath id="clip0_1_45041">
<rect width="20" height="20" fill="white" transform="translate(18 18)"/>
</clipPath>
</defs>
</svg>
