<svg width="134" height="120" viewBox="0 0 134 120" fill="none" xmlns="http://www.w3.org/2000/svg">
<path d="M0 13.3333C0 9.79711 1.40476 6.40573 3.90524 3.90524C6.40573 1.40476 9.79711 0 13.3333 0H50.1333C52.1318 0.000249318 54.1046 0.449725 55.9059 1.31519C57.7072 2.18065 59.291 3.43997 60.54 5L69.8733 16.6667H120C123.536 16.6667 126.928 18.0714 129.428 20.5719C131.929 23.0724 133.333 26.4638 133.333 30V106.667C133.333 110.203 131.929 113.594 129.428 116.095C126.928 118.595 123.536 120 120 120H13.3333C9.79711 120 6.40573 118.595 3.90524 116.095C1.40476 113.594 0 110.203 0 106.667V13.3333Z" fill="white"/>
<path d="M13.333 1H50.1328L50.4795 1.00488C52.2092 1.05368 53.9106 1.46629 55.4727 2.2168C57.1388 3.0173 58.6035 4.1821 59.7588 5.625L69.0928 17.291L69.3926 17.667H120C123.271 17.667 126.408 18.9664 128.721 21.2793C131.034 23.5922 132.333 26.729 132.333 30V106.667C132.333 109.938 131.034 113.075 128.721 115.388C126.408 117.701 123.271 119 120 119H13.333C10.0621 119 6.92518 117.701 4.6123 115.388C2.29943 113.075 1.00009 109.938 1 106.667V13.333C1.00009 10.0621 2.29943 6.92518 4.6123 4.6123C6.92518 2.29943 10.0621 1.00009 13.333 1Z" stroke="#344054" stroke-opacity="0.5" stroke-width="2"/>
<rect x="11" y="16" width="41.4343" height="41.4343" rx="8.63214" fill="#0169FA" fill-opacity="0.1"/>
<path d="M34.0937 28.1231V31.9857C34.0937 32.5095 34.0937 32.7713 34.1956 32.9714C34.2853 33.1473 34.4283 33.2904 34.6043 33.3801C34.8043 33.482 35.0662 33.482 35.5899 33.482H39.4526M39.7046 35.3413V42.0853C39.7046 43.6565 39.7046 44.4421 39.3988 45.0423C39.1298 45.5701 38.7006 45.9993 38.1728 46.2683C37.5726 46.5741 36.787 46.5741 35.2158 46.5741H29.2309C27.6597 46.5741 26.8741 46.5741 26.274 46.2683C25.7461 45.9993 25.3169 45.5701 25.048 45.0423C24.7422 44.4421 24.7422 43.6565 24.7422 42.0853V32.3598C24.7422 30.7886 24.7422 30.003 25.048 29.4029C25.3169 28.875 25.7461 28.4458 26.274 28.1769C26.8741 27.8711 27.6597 27.8711 29.2309 27.8711H32.2344C32.9206 27.8711 33.2637 27.8711 33.5865 27.9486C33.8728 28.0173 34.1464 28.1307 34.3975 28.2845C34.6806 28.458 34.9232 28.7006 35.4084 29.1858L38.3898 32.1673C38.8751 32.6525 39.1177 32.8951 39.2911 33.1782C39.445 33.4292 39.5583 33.7029 39.627 33.9891C39.7046 34.312 39.7046 34.6551 39.7046 35.3413Z" stroke="#0169FA" stroke-width="1.8703" stroke-linecap="round" stroke-linejoin="round"/>
</svg>
