<svg width="134" height="120" viewBox="0 0 134 120" fill="none" xmlns="http://www.w3.org/2000/svg">
<path d="M0 13.3333C0 9.79711 1.40476 6.40573 3.90524 3.90524C6.40573 1.40476 9.79711 0 13.3333 0H50.1333C52.1318 0.000249318 54.1046 0.449725 55.9059 1.31519C57.7072 2.18065 59.291 3.43997 60.54 5L69.8733 16.6667H120C123.536 16.6667 126.928 18.0714 129.428 20.5719C131.929 23.0724 133.333 26.4638 133.333 30V106.667C133.333 110.203 131.929 113.594 129.428 116.095C126.928 118.595 123.536 120 120 120H13.3333C9.79711 120 6.40573 118.595 3.90524 116.095C1.40476 113.594 0 110.203 0 106.667V13.3333Z" fill="#0169FA"/>
<path d="M13.333 1H50.1328L50.4795 1.00488C52.2092 1.05368 53.9106 1.46629 55.4727 2.2168C57.1388 3.0173 58.6035 4.1821 59.7588 5.625L69.0928 17.291L69.3926 17.667H120C123.271 17.667 126.408 18.9664 128.721 21.2793C131.034 23.5922 132.333 26.729 132.333 30V106.667C132.333 109.938 131.034 113.075 128.721 115.388C126.408 117.701 123.271 119 120 119H13.333C10.0621 119 6.92518 117.701 4.6123 115.388C2.29943 113.075 1.00009 109.938 1 106.667V13.333C1.00009 10.0621 2.29943 6.92518 4.6123 4.6123C6.92518 2.29943 10.0621 1.00009 13.333 1Z" stroke="#344054" stroke-opacity="0.5" stroke-width="2"/>
</svg>
