<svg width="21" height="21" viewBox="0 0 21 21" fill="none" xmlns="http://www.w3.org/2000/svg">
<path d="M11.3337 6.30929L10.404 4.45005C10.1365 3.91495 10.0027 3.64739 9.80313 3.45192C9.62664 3.27906 9.41393 3.1476 9.18039 3.06704C8.9163 2.97595 8.61716 2.97595 8.0189 2.97595H4.83366C3.90024 2.97595 3.43353 2.97595 3.07701 3.15761C2.7634 3.3174 2.50844 3.57236 2.34865 3.88597C2.16699 4.24249 2.16699 4.7092 2.16699 5.64262V6.30929M2.16699 6.30929H14.8337C16.2338 6.30929 16.9339 6.30929 17.4686 6.58177C17.939 6.82145 18.3215 7.2039 18.5612 7.67431C18.8337 8.20909 18.8337 8.90915 18.8337 10.3093V13.976C18.8337 15.3761 18.8337 16.0761 18.5612 16.6109C18.3215 17.0813 17.939 17.4638 17.4686 17.7035C16.9339 17.976 16.2338 17.976 14.8337 17.976H6.16699C4.76686 17.976 4.0668 17.976 3.53202 17.7035C3.06161 17.4638 2.67916 17.0813 2.43948 16.6109C2.16699 16.0761 2.16699 15.3761 2.16699 13.976V6.30929ZM10.5003 14.6426V9.64262M8.00033 12.1426H13.0003" stroke="#00945E" stroke-width="1.64022" stroke-linecap="round" stroke-linejoin="round"/>
</svg>
