<?xml version="1.0" encoding="UTF-8"?>
<svg width="24px" height="24px" viewBox="0 0 24 24" version="1.1" xmlns="http://www.w3.org/2000/svg">
  <g stroke="none" stroke-width="1" fill="none" fill-rule="evenodd">
    <rect x="0" y="0" width="24" height="24"></rect>
    <path d="M5,3 L19,3 C20.1045695,3 21,3.8954305 21,5 L21,19 C21,20.1045695 20.1045695,21 19,21 L5,21 C3.8954305,21 3,20.1045695 3,19 L3,5 C3,3.8954305 3.8954305,3 5,3 Z" fill="#E74C3C"></path>
    <rect fill="#FFFFFF" opacity="0.5" x="4" y="4" width="16" height="16" rx="2"></rect>
    <path d="M8.5,11 C8.22385763,11 8,11.2238576 8,11.5 C8,11.7761424 8.22385763,12 8.5,12 L15.5,12 C15.7761424,12 16,11.7761424 16,11.5 C16,11.2238576 15.7761424,11 15.5,11 L8.5,11 Z M8.5,14 C8.22385763,14 8,14.2238576 8,14.5 C8,14.7761424 8.22385763,15 8.5,15 L11.5,15 C11.7761424,15 12,14.7761424 12,14.5 C12,14.2238576 11.7761424,14 11.5,14 L8.5,14 Z" fill="#E74C3C"></path>
    <path d="M9.5,7.5 C9.5,7.22385763 9.72385763,7 10,7 L10.5,7 C11.3284271,7 12,7.67157288 12,8.5 C12,9.32842712 11.3284271,10 10.5,10 L10,10 C9.72385763,10 9.5,9.77614237 9.5,9.5 L9.5,7.5 Z M10.5,8 L10.5,9 C10.7761424,9 11,8.77614237 11,8.5 C11,8.22385763 10.7761424,8 10.5,8 Z" fill="#E74C3C"></path>
    <path d="M14,7 C13.4477153,7 13,7.44771525 13,8 L13,9.5 C13,9.77614237 13.2238576,10 13.5,10 C13.7761424,10 14,9.77614237 14,9.5 L14,8.5 C14,8.22385763 14.2238576,8 14.5,8 C14.7761424,8 15,8.22385763 15,8.5 L15,9.5 C15,9.77614237 15.2238576,10 15.5,10 C15.7761424,10 16,9.77614237 16,9.5 L16,8 C16,7.44771525 15.5522847,7 15,7 L14,7 Z" fill="#E74C3C"></path>
  </g>
</svg>
