<svg width="42" height="42" viewBox="0 0 42 42" fill="none" xmlns="http://www.w3.org/2000/svg">
<rect width="41.4343" height="41.4343" rx="8.63214" fill="#9C9C9C" fill-opacity="0.1"/>
<path d="M20.7181 16.9996V24.4366M16.9996 20.7181H24.4366M16.8137 29.0846H24.6225C26.1844 29.0846 26.9653 29.0846 27.5619 28.7807C28.0866 28.5133 28.5133 28.0866 28.7807 27.5619C29.0846 26.9653 29.0846 26.1844 29.0846 24.6225V16.8137C29.0846 15.2518 29.0846 14.4709 28.7807 13.8743C28.5133 13.3495 28.0866 12.9229 27.5619 12.6555C26.9653 12.3516 26.1844 12.3516 24.6225 12.3516H16.8137C15.2518 12.3516 14.4709 12.3516 13.8743 12.6555C13.3495 12.9229 12.9229 13.3495 12.6555 13.8743C12.3516 14.4709 12.3516 15.2518 12.3516 16.8137V24.6225C12.3516 26.1844 12.3516 26.9653 12.6555 27.5619C12.9229 28.0866 13.3495 28.5133 13.8743 28.7807C14.4709 29.0846 15.2518 29.0846 16.8137 29.0846Z" stroke="#0169FA" stroke-width="1.85923" stroke-linecap="round" stroke-linejoin="round"/>
</svg>
