<svg width="56" height="56" viewBox="0 0 56 56" fill="none" xmlns="http://www.w3.org/2000/svg">
<rect x="4" y="4" width="48" height="48" rx="24" fill="#0169FA" fill-opacity="0.2"/>
<rect x="2" y="2" width="52" height="52" rx="26" stroke="#0169FA" stroke-opacity="0.1" stroke-width="4"/>
<path d="M32.1673 27.1667V24.6667C32.1673 22.3655 30.3018 20.5 28.0007 20.5C25.6995 20.5 23.834 22.3655 23.834 24.6667V27.1667M25.334 35.5H30.6673C32.0674 35.5 32.7675 35.5 33.3023 35.2275C33.7727 34.9878 34.1552 34.6054 34.3948 34.135C34.6673 33.6002 34.6673 32.9001 34.6673 31.5V31.1667C34.6673 29.7665 34.6673 29.0665 34.3948 28.5317C34.1552 28.0613 33.7727 27.6788 33.3023 27.4392C32.7675 27.1667 32.0674 27.1667 30.6673 27.1667H25.334C23.9339 27.1667 23.2338 27.1667 22.699 27.4392C22.2286 27.6788 21.8462 28.0613 21.6065 28.5317C21.334 29.0665 21.334 29.7665 21.334 31.1667V31.5C21.334 32.9001 21.334 33.6002 21.6065 34.135C21.8462 34.6054 22.2286 34.9878 22.699 35.2275C23.2338 35.5 23.9339 35.5 25.334 35.5Z" stroke="#0169FA" stroke-width="1.66667" stroke-linecap="round" stroke-linejoin="round"/>
</svg>
