<?xml version="1.0" encoding="UTF-8"?>
<svg width="24px" height="24px" viewBox="0 0 24 24" version="1.1" xmlns="http://www.w3.org/2000/svg">
  <g stroke="none" stroke-width="1" fill="none" fill-rule="evenodd">
    <rect x="0" y="0" width="24" height="24"></rect>
    <path d="M5,3 L19,3 C20.1045695,3 21,3.8954305 21,5 L21,19 C21,20.1045695 20.1045695,21 19,21 L5,21 C3.8954305,21 3,20.1045695 3,19 L3,5 C3,3.8954305 3.8954305,3 5,3 Z" fill="#3498DB"></path>
    <rect fill="#FFFFFF" opacity="0.5" x="4" y="4" width="16" height="16" rx="2"></rect>
    <path d="M8.5,7 C8.22385763,7 8,7.22385763 8,7.5 L8,16.5 C8,16.7761424 8.22385763,17 8.5,17 L9,17 C9.27614237,17 9.5,16.7761424 9.5,16.5 L9.5,7.5 C9.5,7.22385763 9.27614237,7 9,7 L8.5,7 Z" fill="#3498DB"></path>
    <path d="M10.5,10 C10.2238576,10 10,10.2238576 10,10.5 L10,13.5 C10,14.3284271 10.6715729,15 11.5,15 L12.5,15 C13.3284271,15 14,14.3284271 14,13.5 L14,10.5 C14,10.2238576 13.7761424,10 13.5,10 L13,10 C12.7238576,10 12.5,10.2238576 12.5,10.5 L12.5,13 L11.5,13 L11.5,10.5 C11.5,10.2238576 11.2761424,10 11,10 L10.5,10 Z" fill="#3498DB"></path>
  </g>
</svg>
