<svg width="181" height="181" viewBox="0 0 181 181" fill="none" xmlns="http://www.w3.org/2000/svg">
<circle cx="90.5" cy="90.5" r="90.5" fill="#D9D9D9"/>
<path d="M56.3257 72.8423C53.81 72.1995 51.1895 72.3947 48.9894 73.389L21.353 85.878C15.6589 88.4513 13.6597 94.4955 16.8472 99.3384L51.5679 152.192C54.7554 157.035 62.0222 158.892 67.7164 156.319L150.541 118.89C156.235 116.317 158.286 110.249 155.098 105.406L126.121 61.3809C122.934 56.5381 115.667 54.6812 109.973 57.2544L71.9833 74.422C69.7831 75.4163 67.1626 75.6115 64.647 74.9687L56.3257 72.8423Z" fill="#0169FA"/>
<g filter="url(#filter0_d_174_8705)">
<rect width="115.4" height="72.9775" rx="18.4045" transform="matrix(0.91127 -0.411809 0.549787 0.835305 18.2212 97.8535)" fill="white"/>
</g>
<g filter="url(#filter1_d_174_8705)">
<rect width="115.4" height="72.9775" rx="18.4045" transform="matrix(0.91127 -0.411809 0.549787 0.835305 19.8918 93.1543)" fill="white"/>
</g>
<g filter="url(#filter2_d_174_8705)">
<path d="M62.591 61.4751C60.0982 60.8558 57.5091 61.0577 55.3324 62.0414L27.1677 74.7692C21.3839 77.383 19.3121 83.46 22.4996 88.3028L57.2195 141.157C60.407 146 67.7472 147.824 73.531 145.21L157.66 107.192C163.444 104.578 165.568 98.4772 162.38 93.6344L133.403 49.6088C130.216 44.766 122.876 42.9422 117.092 45.556L78.4111 63.0361C76.2344 64.0198 73.6453 64.2217 71.1525 63.6024L62.591 61.4751Z" fill="#0169FA"/>
</g>
<circle cx="148" cy="159" r="20" fill="#0169FA"/>
<defs>
<filter id="filter0_d_174_8705" x="16.3185" y="56.1387" width="149.088" height="115.27" filterUnits="userSpaceOnUse" color-interpolation-filters="sRGB">
<feFlood flood-opacity="0" result="BackgroundImageFix"/>
<feColorMatrix in="SourceAlpha" type="matrix" values="0 0 0 0 0 0 0 0 0 0 0 0 0 0 0 0 0 0 127 0" result="hardAlpha"/>
<feOffset dy="9.20224"/>
<feGaussianBlur stdDeviation="4.60112"/>
<feComposite in2="hardAlpha" operator="out"/>
<feColorMatrix type="matrix" values="0 0 0 0 0 0 0 0 0 0 0 0 0 0 0 0 0 0 0.1 0"/>
<feBlend mode="normal" in2="BackgroundImageFix" result="effect1_dropShadow_174_8705"/>
<feBlend mode="normal" in="SourceGraphic" in2="effect1_dropShadow_174_8705" result="shape"/>
</filter>
<filter id="filter1_d_174_8705" x="17.9892" y="51.4395" width="149.088" height="115.27" filterUnits="userSpaceOnUse" color-interpolation-filters="sRGB">
<feFlood flood-opacity="0" result="BackgroundImageFix"/>
<feColorMatrix in="SourceAlpha" type="matrix" values="0 0 0 0 0 0 0 0 0 0 0 0 0 0 0 0 0 0 127 0" result="hardAlpha"/>
<feOffset dy="9.20224"/>
<feGaussianBlur stdDeviation="4.60112"/>
<feComposite in2="hardAlpha" operator="out"/>
<feColorMatrix type="matrix" values="0 0 0 0 0 0 0 0 0 0 0 0 0 0 0 0 0 0 0.1 0"/>
<feBlend mode="normal" in2="BackgroundImageFix" result="effect1_dropShadow_174_8705"/>
<feBlend mode="normal" in="SourceGraphic" in2="effect1_dropShadow_174_8705" result="shape"/>
</filter>
<filter id="filter2_d_174_8705" x="14.2981" y="44.3613" width="156.271" height="115.456" filterUnits="userSpaceOnUse" color-interpolation-filters="sRGB">
<feFlood flood-opacity="0" result="BackgroundImageFix"/>
<feColorMatrix in="SourceAlpha" type="matrix" values="0 0 0 0 0 0 0 0 0 0 0 0 0 0 0 0 0 0 127 0" result="hardAlpha"/>
<feOffset dy="6.70632"/>
<feGaussianBlur stdDeviation="3.35316"/>
<feComposite in2="hardAlpha" operator="out"/>
<feColorMatrix type="matrix" values="0 0 0 0 0 0 0 0 0 0 0 0 0 0 0 0 0 0 0.1 0"/>
<feBlend mode="normal" in2="BackgroundImageFix" result="effect1_dropShadow_174_8705"/>
<feBlend mode="normal" in="SourceGraphic" in2="effect1_dropShadow_174_8705" result="shape"/>
</filter>
</defs>
</svg>
